<?xml version="1.0" encoding="utf-8"?>
<!-- Generator: Adobe Illustrator 16.0.0, SVG Export Plug-In . SVG Version: 6.00 Build 0)  -->
<!DOCTYPE svg PUBLIC "-//W3C//DTD SVG 1.1//EN" "http://www.w3.org/Graphics/SVG/1.1/DTD/svg11.dtd">
<svg version="1.1" id="图层_1" xmlns="http://www.w3.org/2000/svg" xmlns:xlink="http://www.w3.org/1999/xlink" x="0px" y="0px"
	 width="1064.12px" height="34.3px" viewBox="0 0 1064.12 34.3" enable-background="new 0 0 1064.12 34.3" xml:space="preserve">
<g>
	<line fill="none" stroke="#497A8D" stroke-miterlimit="10" x1="5.419" y1="19.844" x2="1033.918" y2="19.844"/>
	<line fill="none" stroke="#497A8D" stroke-width="0.5" stroke-miterlimit="10" x1="5.419" y1="23.844" x2="1033.918" y2="23.844"/>
	<polygon fill="#EFA54D" points="1028.918,33.864 1033.918,28.864 1038.918,33.864 	"/>
	<polygon fill="#EFA54D" points="1044.123,16.752 1054.123,0.002 1064.123,16.752 	"/>
	<polygon fill="#EFA54D" points="0,33.864 5,28.864 10,33.864 	"/>
	<circle fill="#9DD1D9" cx="94.293" cy="23.844" r="2"/>
	<circle fill="#9DD1D9" cx="353.213" cy="23.844" r="2"/>
	<circle fill="#9DD1D9" cx="758.213" cy="23.844" r="2"/>
	<circle fill="#9DD1D9" cx="409.963" cy="23.844" r="2"/>
	<text transform="matrix(1 0 0 1 1052.7422 14.3647)" fill="#040000" font-family="'Eurostile'" font-size="12">!</text>
	<polygon opacity="0.25" fill="#9DD1D9" points="470.69,28.43 466.876,31.204 195.371,31.204 191.501,34.299 15.737,34.299 
		15.737,28.43 	"/>
</g>
</svg>
