<?xml version="1.0" encoding="utf-8"?>
<!-- Generator: Adobe Illustrator 16.0.0, SVG Export Plug-In . SVG Version: 6.00 Build 0)  -->
<!DOCTYPE svg PUBLIC "-//W3C//DTD SVG 1.1//EN" "http://www.w3.org/Graphics/SVG/1.1/DTD/svg11.dtd">
<svg version="1.1" id="图层_1" xmlns="http://www.w3.org/2000/svg" xmlns:xlink="http://www.w3.org/1999/xlink" x="0px" y="0px"
	 width="389.85px" height="149.98px" viewBox="0 0 389.85 149.98" enable-background="new 0 0 389.85 149.98" xml:space="preserve">
<g>
	<g opacity="0.18">
		
			<rect x="44.455" y="4.087" transform="matrix(-0.7071 0.7071 -0.7071 -0.7071 101.4716 -15.0583)" fill="#497A8D" width="18.799" height="18.799"/>
		<path fill="#9DD1D9" d="M53.854,0.9L66.44,13.486L53.854,26.072L41.269,13.486L53.854,0.9 M53.854-0.514l-14,14l14,14l14-14
			L53.854-0.514L53.854-0.514z"/>
	</g>
	<g opacity="0.2">
		
			<rect x="4.249" y="4.087" transform="matrix(-0.7071 0.7071 -0.7071 -0.7071 32.8356 13.3717)" fill="#497A8D" width="18.799" height="18.799"/>
		<path fill="#9DD1D9" d="M13.648,0.9l12.586,12.586L13.648,26.072L1.063,13.486L13.648,0.9 M13.648-0.514l-14,14l14,14l14-14
			L13.648-0.514L13.648-0.514z"/>
	</g>
	<g opacity="0.16">
		
			<rect x="84.661" y="4.087" transform="matrix(-0.7071 0.7071 -0.7071 -0.7071 170.1077 -43.4882)" fill="#497A8D" width="18.799" height="18.799"/>
		<path fill="#9DD1D9" d="M94.061,0.9l12.586,12.586L94.061,26.072L81.475,13.486L94.061,0.9 M94.061-0.514l-14,14l14,14l14-14
			L94.061-0.514L94.061-0.514z"/>
	</g>
	<g opacity="0.14">
		
			<rect x="124.866" y="4.087" transform="matrix(-0.7071 0.7071 -0.7071 -0.7071 238.742 -71.9175)" fill="#497A8D" width="18.799" height="18.799"/>
		<path fill="#9DD1D9" d="M134.266,0.9l12.586,12.586l-12.586,12.586L121.68,13.486L134.266,0.9 M134.266-0.514l-14,14l14,14l14-14
			L134.266-0.514L134.266-0.514z"/>
	</g>
	<g opacity="0.12">
		
			<rect x="165.071" y="4.087" transform="matrix(-0.7071 0.7071 -0.7071 -0.7071 307.3764 -100.3468)" fill="#497A8D" width="18.799" height="18.799"/>
		<path fill="#9DD1D9" d="M174.471,0.9l12.586,12.586l-12.586,12.586l-12.586-12.586L174.471,0.9 M174.471-0.514l-14,14l14,14l14-14
			L174.471-0.514L174.471-0.514z"/>
	</g>
	<g opacity="0.1">
		
			<rect x="205.277" y="4.087" transform="matrix(-0.7071 0.7071 -0.7071 -0.7071 376.0124 -128.7768)" fill="#497A8D" width="18.799" height="18.799"/>
		<path fill="#9DD1D9" d="M214.677,0.9l12.586,12.586l-12.586,12.586l-12.586-12.586L214.677,0.9 M214.677-0.514l-14,14l14,14l14-14
			L214.677-0.514L214.677-0.514z"/>
	</g>
	<g opacity="0.08">
		
			<rect x="245.483" y="4.087" transform="matrix(-0.7071 0.7071 -0.7071 -0.7071 444.6484 -157.2068)" fill="#497A8D" width="18.799" height="18.799"/>
		<path fill="#9DD1D9" d="M254.883,0.9l12.586,12.586l-12.586,12.586l-12.586-12.586L254.883,0.9 M254.883-0.514l-14,14l14,14l14-14
			L254.883-0.514L254.883-0.514z"/>
	</g>
	<g opacity="0.06">
		
			<rect x="285.688" y="4.087" transform="matrix(-0.7071 0.7071 -0.7071 -0.7071 513.2828 -185.636)" fill="#497A8D" width="18.799" height="18.799"/>
		<path fill="#9DD1D9" d="M295.088,0.9l12.586,12.586l-12.586,12.586l-12.586-12.586L295.088,0.9 M295.088-0.514l-14,14l14,14l14-14
			L295.088-0.514L295.088-0.514z"/>
	</g>
	<g opacity="0.04">
		
			<rect x="325.893" y="4.087" transform="matrix(-0.7071 0.7071 -0.7071 -0.7071 581.9172 -214.0653)" fill="#497A8D" width="18.799" height="18.799"/>
		<path fill="#9DD1D9" d="M335.293,0.9l12.586,12.586l-12.586,12.586l-12.586-12.586L335.293,0.9 M335.293-0.514l-14,14l14,14l14-14
			L335.293-0.514L335.293-0.514z"/>
	</g>
	<g opacity="0.02">
		
			<rect x="366.099" y="4.087" transform="matrix(-0.7071 0.7071 -0.7071 -0.7071 650.5532 -242.4953)" fill="#497A8D" width="18.799" height="18.799"/>
		<path fill="#9DD1D9" d="M375.499,0.9l12.586,12.586l-12.586,12.586l-12.586-12.586L375.499,0.9 M375.499-0.514l-14,14l14,14l14-14
			L375.499-0.514L375.499-0.514z"/>
	</g>
	<g opacity="0.2">
		
			<rect x="11.881" y="11.719" transform="matrix(-0.7071 0.7071 -0.7071 -0.7071 32.8356 13.3717)" fill="#9DD1D9" width="3.536" height="3.536"/>
	</g>
	<g opacity="0.18">
		
			<rect x="52.087" y="11.719" transform="matrix(-0.7071 0.7071 -0.7071 -0.7071 101.4716 -15.0583)" fill="#9DD1D9" width="3.536" height="3.536"/>
	</g>
	<g opacity="0.16">
		
			<rect x="92.293" y="11.719" transform="matrix(-0.7071 0.7071 -0.7071 -0.7071 170.1077 -43.4882)" fill="#9DD1D9" width="3.536" height="3.536"/>
	</g>
	<g opacity="0.14">
		
			<rect x="132.498" y="11.719" transform="matrix(-0.7071 0.7071 -0.7071 -0.7071 238.742 -71.9175)" fill="#9DD1D9" width="3.536" height="3.536"/>
	</g>
	<g opacity="0.12">
		
			<rect x="172.377" y="11.719" transform="matrix(-0.7071 0.7071 -0.7071 -0.7071 306.8196 -100.1162)" fill="#9DD1D9" width="3.536" height="3.536"/>
	</g>
	<g opacity="0.1">
		
			<rect x="212.583" y="11.719" transform="matrix(-0.7071 0.7071 -0.7071 -0.7071 375.4556 -128.5461)" fill="#9DD1D9" width="3.536" height="3.536"/>
	</g>
	<g opacity="0.08">
		
			<rect x="252.789" y="11.719" transform="matrix(-0.7071 0.7071 -0.7071 -0.7071 444.0916 -156.9761)" fill="#9DD1D9" width="3.536" height="3.536"/>
	</g>
	<g opacity="0.06">
		
			<rect x="292.994" y="11.719" transform="matrix(-0.7071 0.7071 -0.7071 -0.7071 512.726 -185.4054)" fill="#9DD1D9" width="3.536" height="3.536"/>
	</g>
	<g opacity="0.04">
		
			<rect x="333.291" y="11.719" transform="matrix(-0.7071 0.7071 -0.7071 -0.7071 581.5171 -213.8996)" fill="#9DD1D9" width="3.536" height="3.536"/>
	</g>
	<g opacity="0.02">
		
			<rect x="373.497" y="11.719" transform="matrix(-0.7071 0.7071 -0.7071 -0.7071 650.1531 -242.3296)" fill="#9DD1D9" width="3.536" height="3.536"/>
	</g>
	
		<rect x="3.749" y="125.569" transform="matrix(-0.7071 0.7071 -0.7071 -0.7071 119.0902 221.6087)" opacity="0.8" fill="#9DD1D9" width="19.799" height="19.799"/>
	
		<rect x="43.955" y="125.569" transform="matrix(-0.7071 0.7071 -0.7071 -0.7071 187.7262 193.1787)" opacity="0.8" fill="#9DD1D9" width="19.799" height="19.799"/>
	
		<rect x="84.161" y="125.569" transform="matrix(-0.7071 0.7071 -0.7071 -0.7071 256.3622 164.7488)" opacity="0.6" fill="#9DD1D9" width="19.799" height="19.799"/>
	
		<rect x="124.366" y="125.569" transform="matrix(-0.7071 0.7071 -0.7071 -0.7071 324.9966 136.3195)" opacity="0.6" fill="#9DD1D9" width="19.799" height="19.799"/>
	
		<rect x="164.571" y="125.569" transform="matrix(-0.7071 0.7071 -0.7071 -0.7071 393.631 107.8902)" opacity="0.4" fill="#9DD1D9" width="19.799" height="19.799"/>
	
		<rect x="204.777" y="125.569" transform="matrix(-0.7071 0.7071 -0.7071 -0.7071 462.267 79.4602)" opacity="0.4" fill="#9DD1D9" width="19.799" height="19.799"/>
	<g>
		
			<rect x="11.881" y="133.701" transform="matrix(-0.7071 0.7071 -0.7071 -0.7071 119.0902 221.6087)" fill="#243F47" width="3.536" height="3.536"/>
	</g>
	<g>
		
			<rect x="52.087" y="133.701" transform="matrix(-0.7071 0.7071 -0.7071 -0.7071 187.7262 193.1787)" fill="#243F47" width="3.536" height="3.536"/>
	</g>
	<g>
		
			<rect x="92.293" y="133.701" transform="matrix(-0.7071 0.7071 -0.7071 -0.7071 256.3622 164.7488)" fill="#243F47" width="3.536" height="3.536"/>
	</g>
	<g>
		
			<rect x="132.498" y="133.701" transform="matrix(-0.7071 0.7071 -0.7071 -0.7071 324.9966 136.3195)" fill="#243F47" width="3.536" height="3.536"/>
	</g>
	<g>
		
			<rect x="172.377" y="133.701" transform="matrix(-0.7071 0.7071 -0.7071 -0.7071 393.0742 108.1208)" fill="#243F47" width="3.536" height="3.536"/>
	</g>
	<g>
		
			<rect x="212.583" y="133.701" transform="matrix(-0.7071 0.7071 -0.7071 -0.7071 461.7102 79.6909)" fill="#243F47" width="3.536" height="3.536"/>
	</g>
	
		<rect x="3.749" y="64.578" transform="matrix(-0.7071 0.7071 -0.7071 -0.7071 75.9629 117.4902)" fill="#9DD1D9" width="19.799" height="19.799"/>
	
		<rect x="43.955" y="64.578" transform="matrix(-0.7071 0.7071 -0.7071 -0.7071 144.5989 89.0602)" fill="#9DD1D9" width="19.799" height="19.799"/>
	
		<rect x="84.161" y="64.578" transform="matrix(-0.7071 0.7071 -0.7071 -0.7071 213.235 60.6303)" opacity="0.8" fill="#9DD1D9" width="19.799" height="19.799"/>
	
		<rect x="124.366" y="64.578" transform="matrix(-0.7071 0.7071 -0.7071 -0.7071 281.8693 32.201)" opacity="0.8" fill="#9DD1D9" width="19.799" height="19.799"/>
	
		<rect x="164.571" y="64.578" transform="matrix(-0.7071 0.7071 -0.7071 -0.7071 350.5037 3.7717)" opacity="0.6" fill="#9DD1D9" width="19.799" height="19.799"/>
	
		<rect x="204.777" y="64.578" transform="matrix(-0.7071 0.7071 -0.7071 -0.7071 419.1397 -24.6583)" opacity="0.6" fill="#9DD1D9" width="19.799" height="19.799"/>
	
		<rect x="244.983" y="64.578" transform="matrix(-0.7071 0.7071 -0.7071 -0.7071 487.7758 -53.0882)" opacity="0.4" fill="#9DD1D9" width="19.799" height="19.799"/>
	
		<rect x="285.188" y="64.578" transform="matrix(-0.7071 0.7071 -0.7071 -0.7071 556.4101 -81.5175)" opacity="0.4" fill="#9DD1D9" width="19.799" height="19.799"/>
	<g>
		
			<rect x="11.881" y="73.727" transform="matrix(-0.7071 0.7071 -0.7071 -0.7071 76.6824 119.2273)" fill="#243F47" width="3.536" height="3.536"/>
	</g>
	<g>
		
			<rect x="52.087" y="73.727" transform="matrix(-0.7071 0.7071 -0.7071 -0.7071 145.3185 90.7973)" fill="#243F47" width="3.536" height="3.536"/>
	</g>
	<g>
		
			<rect x="92.293" y="73.727" transform="matrix(-0.7071 0.7071 -0.7071 -0.7071 213.9545 62.3674)" fill="#243F47" width="3.536" height="3.536"/>
	</g>
	<g>
		
			<rect x="132.498" y="73.727" transform="matrix(-0.7071 0.7071 -0.7071 -0.7071 282.5889 33.9381)" fill="#243F47" width="3.536" height="3.536"/>
	</g>
	<g>
		
			<rect x="172.377" y="73.727" transform="matrix(-0.7071 0.7071 -0.7071 -0.7071 350.6664 5.7394)" fill="#243F47" width="3.536" height="3.536"/>
	</g>
	<g>
		
			<rect x="212.583" y="73.727" transform="matrix(-0.7071 0.7071 -0.7071 -0.7071 419.3024 -22.6905)" fill="#243F47" width="3.536" height="3.536"/>
	</g>
	<g>
		
			<rect x="252.789" y="73.727" transform="matrix(-0.7071 0.7071 -0.7071 -0.7071 487.9385 -51.1205)" fill="#243F47" width="3.536" height="3.536"/>
	</g>
	<g>
		
			<rect x="292.994" y="73.727" transform="matrix(-0.7071 0.7071 -0.7071 -0.7071 556.5729 -79.5498)" fill="#243F47" width="3.536" height="3.536"/>
	</g>
</g>
</svg>
