<?xml version="1.0" encoding="utf-8"?>
<!-- Generator: Adobe Illustrator 16.0.0, SVG Export Plug-In . SVG Version: 6.00 Build 0)  -->
<!DOCTYPE svg PUBLIC "-//W3C//DTD SVG 1.1//EN" "http://www.w3.org/Graphics/SVG/1.1/DTD/svg11.dtd">
<svg version="1.1" id="图层_1" xmlns="http://www.w3.org/2000/svg" xmlns:xlink="http://www.w3.org/1999/xlink" x="0px" y="0px"
	 width="389.85px" height="149.98px" viewBox="0 0 389.85 149.98" enable-background="new 0 0 389.85 149.98" xml:space="preserve">
<g>
	<g opacity="0.18">
		
			<rect x="326.244" y="4.599" transform="matrix(-0.7071 0.7071 -0.7071 -0.7071 582.8778 -213.4388)" fill="#497A8D" width="18.799" height="18.799"/>
		<path fill="#9DD1D9" d="M335.644,1.413l12.586,12.586l-12.586,12.586l-12.586-12.586L335.644,1.413 M335.644-0.001l-14,14l14,14
			l14-14L335.644-0.001L335.644-0.001z"/>
	</g>
	<g opacity="0.2">
		
			<rect x="366.45" y="4.599" transform="matrix(-0.7071 0.7071 -0.7071 -0.7071 651.5139 -241.8688)" fill="#497A8D" width="18.799" height="18.799"/>
		<path fill="#9DD1D9" d="M375.85,1.413l12.586,12.586L375.85,26.584l-12.586-12.586L375.85,1.413 M375.85-0.001l-14,14l14,14l14-14
			L375.85-0.001L375.85-0.001z"/>
	</g>
	<g opacity="0.16">
		
			<rect x="286.038" y="4.599" transform="matrix(-0.7071 0.7071 -0.7071 -0.7071 514.2418 -185.0089)" fill="#497A8D" width="18.799" height="18.799"/>
		<path fill="#9DD1D9" d="M295.438,1.413l12.586,12.586l-12.586,12.586l-12.586-12.586L295.438,1.413 M295.438-0.001l-14,14l14,14
			l14-14L295.438-0.001L295.438-0.001z"/>
	</g>
	<g opacity="0.14">
		
			<rect x="245.833" y="4.599" transform="matrix(-0.7071 0.7071 -0.7071 -0.7071 445.6075 -156.5796)" fill="#497A8D" width="18.799" height="18.799"/>
		<path fill="#9DD1D9" d="M255.232,1.413l12.586,12.586l-12.586,12.586l-12.586-12.586L255.232,1.413 M255.232-0.001l-14,14l14,14
			l14-14L255.232-0.001L255.232-0.001z"/>
	</g>
	<g opacity="0.12">
		
			<rect x="205.628" y="4.599" transform="matrix(-0.7071 0.7071 -0.7071 -0.7071 376.9731 -128.1503)" fill="#497A8D" width="18.799" height="18.799"/>
		<path fill="#9DD1D9" d="M215.027,1.413l12.586,12.586l-12.586,12.586l-12.586-12.586L215.027,1.413 M215.027-0.001l-14,14l14,14
			l14-14L215.027-0.001L215.027-0.001z"/>
	</g>
	<g opacity="0.1">
		
			<rect x="165.422" y="4.599" transform="matrix(-0.7071 0.7071 -0.7071 -0.7071 308.3371 -99.7203)" fill="#497A8D" width="18.799" height="18.799"/>
		<path fill="#9DD1D9" d="M174.821,1.413l12.586,12.586l-12.586,12.586l-12.586-12.586L174.821,1.413 M174.821-0.001l-14,14l14,14
			l14-14L174.821-0.001L174.821-0.001z"/>
	</g>
	<g opacity="0.08">
		
			<rect x="125.216" y="4.599" transform="matrix(-0.7071 0.7071 -0.7071 -0.7071 239.7019 -71.2907)" fill="#497A8D" width="18.799" height="18.799"/>
		<path fill="#9DD1D9" d="M134.616,1.413l12.586,12.586l-12.586,12.586L122.03,13.999L134.616,1.413 M134.616-0.001l-14,14l14,14
			l14-14L134.616-0.001L134.616-0.001z"/>
	</g>
	<g opacity="0.06">
		
			<rect x="85.011" y="4.599" transform="matrix(-0.7071 0.7071 -0.7071 -0.7071 171.0667 -42.8611)" fill="#497A8D" width="18.799" height="18.799"/>
		<path fill="#9DD1D9" d="M94.41,1.413l12.586,12.586L94.41,26.584L81.824,13.999L94.41,1.413 M94.41-0.001l-14,14l14,14l14-14
			L94.41-0.001L94.41-0.001z"/>
	</g>
	<g opacity="0.04">
		
			<rect x="44.805" y="4.599" transform="matrix(-0.7071 0.7071 -0.7071 -0.7071 102.4315 -14.4314)" fill="#497A8D" width="18.799" height="18.799"/>
		<path fill="#9DD1D9" d="M54.205,1.413l12.586,12.586L54.205,26.584L41.619,13.999L54.205,1.413 M54.205-0.001l-14,14l14,14l14-14
			L54.205-0.001L54.205-0.001z"/>
	</g>
	<g opacity="0.02">
		
			<rect x="4.599" y="4.599" transform="matrix(-0.7071 0.7071 -0.7071 -0.7071 33.7963 13.9982)" fill="#497A8D" width="18.799" height="18.799"/>
		<path fill="#9DD1D9" d="M13.999,1.413l12.586,12.586L13.999,26.584L1.413,13.999L13.999,1.413 M13.999-0.001l-14,14l14,14l14-14
			L13.999-0.001L13.999-0.001z"/>
	</g>
	<g opacity="0.2">
		
			<rect x="374.082" y="12.231" transform="matrix(0.7071 0.7071 -0.7071 0.7071 119.9823 -261.6657)" fill="#9DD1D9" width="3.536" height="3.536"/>
	</g>
	<g opacity="0.18">
		
			<rect x="333.876" y="12.231" transform="matrix(0.7071 0.7071 -0.7071 0.7071 108.2062 -233.2357)" fill="#9DD1D9" width="3.536" height="3.536"/>
	</g>
	<g opacity="0.16">
		
			<rect x="293.67" y="12.231" transform="matrix(0.7071 0.7071 -0.7071 0.7071 96.4301 -204.8058)" fill="#9DD1D9" width="3.536" height="3.536"/>
	</g>
	<g opacity="0.14">
		
			<rect x="253.465" y="12.231" transform="matrix(0.7071 0.7071 -0.7071 0.7071 84.6543 -176.3765)" fill="#9DD1D9" width="3.536" height="3.536"/>
	</g>
	<g opacity="0.12">
		
			<rect x="213.586" y="12.231" transform="matrix(0.7071 0.7071 -0.7071 0.7071 72.974 -148.1779)" fill="#9DD1D9" width="3.536" height="3.536"/>
	</g>
	<g opacity="0.1">
		
			<rect x="173.38" y="12.231" transform="matrix(0.7071 0.7071 -0.7071 0.7071 61.198 -119.7479)" fill="#9DD1D9" width="3.536" height="3.536"/>
	</g>
	<g opacity="0.08">
		
			<rect x="133.174" y="12.231" transform="matrix(0.7071 0.7071 -0.7071 0.7071 49.4219 -91.3179)" fill="#9DD1D9" width="3.536" height="3.536"/>
	</g>
	<g opacity="0.06">
		
			<rect x="92.968" y="12.231" transform="matrix(0.7071 0.7071 -0.7071 0.7071 37.6459 -62.8883)" fill="#9DD1D9" width="3.536" height="3.536"/>
	</g>
	<g opacity="0.04">
		
			<rect x="52.672" y="12.231" transform="matrix(0.7071 0.7071 -0.7071 0.7071 25.8434 -34.3944)" fill="#9DD1D9" width="3.536" height="3.536"/>
	</g>
	<g opacity="0.02">
		
			<rect x="12.466" y="12.231" transform="matrix(0.7071 0.7071 -0.7071 0.7071 14.0673 -5.9645)" fill="#9DD1D9" width="3.536" height="3.536"/>
	</g>
	
		<rect x="365.95" y="126.081" transform="matrix(0.7071 0.7071 -0.7071 0.7071 206.2365 -225.938)" opacity="0.8" fill="#9DD1D9" width="19.799" height="19.799"/>
	
		<rect x="325.744" y="126.081" transform="matrix(0.7071 0.7071 -0.7071 0.7071 194.4604 -197.5081)" opacity="0.8" fill="#9DD1D9" width="19.799" height="19.799"/>
	
		<rect x="285.538" y="126.081" transform="matrix(0.7071 0.7071 -0.7071 0.7071 182.6844 -169.0781)" opacity="0.6" fill="#9DD1D9" width="19.799" height="19.799"/>
	
		<rect x="245.333" y="126.081" transform="matrix(0.7071 0.7071 -0.7071 0.7071 170.9086 -140.6488)" opacity="0.6" fill="#9DD1D9" width="19.799" height="19.799"/>
	
		<rect x="205.128" y="126.081" transform="matrix(0.7071 0.7071 -0.7071 0.7071 159.1328 -112.2195)" opacity="0.4" fill="#9DD1D9" width="19.799" height="19.799"/>
	
		<rect x="164.922" y="126.081" transform="matrix(0.7071 0.7071 -0.7071 0.7071 147.3567 -83.7896)" opacity="0.4" fill="#9DD1D9" width="19.799" height="19.799"/>
	<g>
		
			<rect x="374.082" y="134.213" transform="matrix(0.7071 0.7071 -0.7071 0.7071 206.2365 -225.938)" fill="#243F47" width="3.536" height="3.536"/>
	</g>
	<g>
		
			<rect x="333.876" y="134.213" transform="matrix(0.7071 0.7071 -0.7071 0.7071 194.4604 -197.5081)" fill="#243F47" width="3.536" height="3.536"/>
	</g>
	<g>
		
			<rect x="293.67" y="134.213" transform="matrix(0.7071 0.7071 -0.7071 0.7071 182.6844 -169.0781)" fill="#243F47" width="3.536" height="3.536"/>
	</g>
	<g>
		
			<rect x="253.465" y="134.213" transform="matrix(0.7071 0.7071 -0.7071 0.7071 170.9086 -140.6488)" fill="#243F47" width="3.536" height="3.536"/>
	</g>
	<g>
		
			<rect x="213.586" y="134.213" transform="matrix(0.7071 0.7071 -0.7071 0.7071 159.2283 -112.4502)" fill="#243F47" width="3.536" height="3.536"/>
	</g>
	<g>
		
			<rect x="173.38" y="134.213" transform="matrix(0.7071 0.7071 -0.7071 0.7071 147.4522 -84.0202)" fill="#243F47" width="3.536" height="3.536"/>
	</g>
	
		<rect x="365.95" y="65.09" transform="matrix(0.7071 0.7071 -0.7071 0.7071 163.1153 -243.8055)" fill="#9DD1D9" width="19.799" height="19.799"/>
	
		<rect x="325.744" y="65.09" transform="matrix(0.7071 0.7071 -0.7071 0.7071 151.3387 -215.375)" fill="#9DD1D9" width="19.799" height="19.799"/>
	
		<rect x="285.538" y="65.09" transform="matrix(0.7071 0.7071 -0.7071 0.7071 139.5621 -186.9445)" opacity="0.8" fill="#9DD1D9" width="19.799" height="19.799"/>
	
		<rect x="245.333" y="65.09" transform="matrix(0.7071 0.7071 -0.7071 0.7071 127.7859 -158.5147)" opacity="0.8" fill="#9DD1D9" width="19.799" height="19.799"/>
	
		<rect x="205.128" y="65.09" transform="matrix(0.7071 0.7071 -0.7071 0.7071 116.0096 -130.085)" opacity="0.6" fill="#9DD1D9" width="19.799" height="19.799"/>
	
		<rect x="164.922" y="65.09" transform="matrix(0.7071 0.7071 -0.7071 0.7071 104.233 -101.6545)" opacity="0.6" fill="#9DD1D9" width="19.799" height="19.799"/>
	
		<rect x="124.716" y="65.09" transform="matrix(0.7071 0.7071 -0.7071 0.7071 92.4566 -73.2244)" opacity="0.4" fill="#9DD1D9" width="19.799" height="19.799"/>
	
		<rect x="84.51" y="65.09" transform="matrix(0.7071 0.7071 -0.7071 0.7071 80.6801 -44.7942)" opacity="0.4" fill="#9DD1D9" width="19.799" height="19.799"/>
	<g>
		
			<rect x="374.082" y="74.24" transform="matrix(0.7071 0.7071 -0.7071 0.7071 163.8293 -243.5037)" fill="#243F47" width="3.536" height="3.536"/>
	</g>
	<g>
		
			<rect x="333.876" y="74.24" transform="matrix(0.7071 0.7071 -0.7071 0.7071 152.0532 -215.0737)" fill="#243F47" width="3.536" height="3.536"/>
	</g>
	<g>
		
			<rect x="293.67" y="74.24" transform="matrix(0.7071 0.7071 -0.7071 0.7071 140.2771 -186.6438)" fill="#243F47" width="3.536" height="3.536"/>
	</g>
	<g>
		
			<rect x="253.465" y="74.24" transform="matrix(0.7071 0.7071 -0.7071 0.7071 128.5013 -158.2145)" fill="#243F47" width="3.536" height="3.536"/>
	</g>
	<g>
		
			<rect x="213.586" y="74.24" transform="matrix(0.7071 0.7071 -0.7071 0.7071 116.8211 -130.0158)" fill="#243F47" width="3.536" height="3.536"/>
	</g>
	<g>
		
			<rect x="173.38" y="74.24" transform="matrix(0.7071 0.7071 -0.7071 0.7071 105.045 -101.5858)" fill="#243F47" width="3.536" height="3.536"/>
	</g>
	<g>
		
			<rect x="133.174" y="74.24" transform="matrix(0.7071 0.7071 -0.7071 0.7071 93.2689 -73.1559)" fill="#243F47" width="3.536" height="3.536"/>
	</g>
	<g>
		
			<rect x="92.968" y="74.24" transform="matrix(0.7071 0.7071 -0.7071 0.7071 81.493 -44.7262)" fill="#243F47" width="3.536" height="3.536"/>
	</g>
</g>
</svg>
