<?xml version="1.0" encoding="utf-8"?>
<!-- Generator: Adobe Illustrator 16.0.0, SVG Export Plug-In . SVG Version: 6.00 Build 0)  -->
<!DOCTYPE svg PUBLIC "-//W3C//DTD SVG 1.1//EN" "http://www.w3.org/Graphics/SVG/1.1/DTD/svg11.dtd">
<svg version="1.1" id="图层_1" xmlns="http://www.w3.org/2000/svg" xmlns:xlink="http://www.w3.org/1999/xlink" x="0px" y="0px"
	 width="38.221px" height="52.18px" viewBox="0 0 38.221 52.18" enable-background="new 0 0 38.221 52.18" xml:space="preserve">
<g>
	<path fill="#EFA54D" d="M11.991,0.062v1.692c13.531,0,24.539,11.008,24.539,24.539c0,12.313-9.116,22.533-20.953,24.272
		l0.247,1.674c12.653-1.86,22.398-12.784,22.398-25.946C38.222,11.829,26.454,0.062,11.991,0.062z"/>
	<path fill="none" stroke="#497A8D" stroke-linecap="round" stroke-miterlimit="10" d="M11.991,3.87v0.846
		c11.897,0,21.577,9.68,21.577,21.577c0,11.896-9.68,21.576-21.577,21.576c-4.244,0-8.201-1.236-11.542-3.359l-0.45,0.717
		c3.472,2.205,7.583,3.49,11.992,3.49c12.364,0,22.423-10.062,22.423-22.424C34.414,13.929,24.354,3.87,11.991,3.87z"/>
</g>
</svg>
