<?xml version="1.0" encoding="utf-8"?>
<!-- Generator: Adobe Illustrator 16.0.0, SVG Export Plug-In . SVG Version: 6.00 Build 0)  -->
<!DOCTYPE svg PUBLIC "-//W3C//DTD SVG 1.1//EN" "http://www.w3.org/Graphics/SVG/1.1/DTD/svg11.dtd">
<svg version="1.1" id="图层_1" xmlns="http://www.w3.org/2000/svg" xmlns:xlink="http://www.w3.org/1999/xlink" x="0px" y="0px"
	 width="165px" height="317px" viewBox="0 0 165 317" enable-background="new 0 0 165 317" xml:space="preserve">
<g>
	<g>
		<path fill="#497A8D" d="M140.692,5.905L81.126,90.53H66.554L6.988,5.905H140.692 M144.546,3.905H3.134L65.516,92.53h16.649
			L144.546,3.905L144.546,3.905z"/>
	</g>
	<polygon fill="#9DD1D9" points="46.737,-0.095 51.737,3.905 3.134,3.905 0.333,-0.095 	"/>
	<line fill="none" stroke="#9DD1D9" stroke-linecap="round" stroke-miterlimit="10" x1="140.26" y1="20.2" x2="85.623" y2="97.2"/>
	
		<line fill="none" stroke="#9DD1D9" stroke-linecap="round" stroke-miterlimit="10" x1="71.099" y1="97.213" x2="85.623" y2="97.213"/>
	
		<line fill="none" stroke="#9DD1D9" stroke-linecap="round" stroke-miterlimit="10" x1="112.941" y1="58.7" x2="155.121" y2="100.879"/>
	
		<line fill="none" stroke="#9DD1D9" stroke-linecap="round" stroke-miterlimit="10" x1="155.121" y1="100.879" x2="155.121" y2="158.667"/>
	
		<line fill="none" stroke="#9DD1D9" stroke-linecap="round" stroke-miterlimit="10" x1="155.121" y1="238.619" x2="155.121" y2="316.406"/>
	
		<line fill="none" stroke="#335661" stroke-linecap="round" stroke-miterlimit="10" x1="155.121" y1="162.286" x2="155.121" y2="235.073"/>
	<polygon fill="#EFA54D" points="159.453,305.094 159.453,316.406 165.11,310.75 	"/>
</g>
</svg>
