<?xml version="1.0" encoding="utf-8"?>
<!-- Generator: Adobe Illustrator 16.0.0, SVG Export Plug-In . SVG Version: 6.00 Build 0)  -->
<!DOCTYPE svg PUBLIC "-//W3C//DTD SVG 1.1//EN" "http://www.w3.org/Graphics/SVG/1.1/DTD/svg11.dtd">
<svg version="1.1" id="图层_1" xmlns="http://www.w3.org/2000/svg" xmlns:xlink="http://www.w3.org/1999/xlink" x="0px" y="0px"
	 width="1529px" height="106.4px" viewBox="0 0 1529 106.4" enable-background="new 0 0 1529 106.4" xml:space="preserve">
<g display="none">
	
		<line display="inline" fill="none" stroke="#497A8D" stroke-linecap="round" stroke-miterlimit="10" x1="52.731" y1="110.023" x2="1581.23" y2="110.023"/>
	<polygon display="inline" fill="#9DD1D9" points="187.683,110.244 183.87,107.471 122.364,107.471 118.495,104.375 59.731,104.375 
		52.731,110.244 	"/>
	<polygon display="inline" fill="#9DD1D9" points="1446.279,110.244 1450.092,107.471 1511.598,107.471 1515.467,104.375 
		1574.23,104.375 1581.23,110.244 	"/>
	<rect x="313.599" y="99.748" display="inline" opacity="0.25" fill="#9DD1D9" width="1024" height="10"/>
	<g display="inline">
		
			<line fill="none" stroke="#497A8D" stroke-linecap="round" stroke-miterlimit="10" x1="328.244" y1="99.748" x2="341.44" y2="86.553"/>
		
			<line fill="none" stroke="#497A8D" stroke-linecap="round" stroke-miterlimit="10" x1="341.727" y1="86.326" x2="639.935" y2="86.326"/>
	</g>
	<g display="inline">
		
			<line fill="none" stroke="#497A8D" stroke-linecap="round" stroke-miterlimit="10" x1="838.995" y1="110.145" x2="868.865" y2="80.275"/>
		
			<line fill="none" stroke="#497A8D" stroke-linecap="round" stroke-miterlimit="10" x1="869.151" y1="80.051" x2="1107.648" y2="80.051"/>
	</g>
	
		<line display="inline" fill="none" stroke="#497A8D" stroke-linecap="round" stroke-miterlimit="10" x1="213.63" y1="51.195" x2="455.279" y2="51.195"/>
	
		<line display="inline" fill="none" stroke="#497A8D" stroke-linecap="round" stroke-miterlimit="10" x1="213.63" y1="12.738" x2="474.594" y2="12.738"/>
	
		<line display="inline" fill="none" stroke="#497A8D" stroke-linecap="round" stroke-miterlimit="10" x1="474.594" y1="12.738" x2="474.594" y2="31.815"/>
	
		<line display="inline" fill="none" stroke="#497A8D" stroke-linecap="round" stroke-miterlimit="10" x1="474.594" y1="31.815" x2="455.279" y2="51.13"/>
	
		<line display="inline" fill="none" stroke="#497A8D" stroke-linecap="round" stroke-miterlimit="10" x1="213.63" y1="51.195" x2="155.076" y2="109.748"/>
	
		<line display="inline" fill="none" stroke="#497A8D" stroke-linecap="round" stroke-miterlimit="10" x1="675.067" y1="51.195" x2="916.716" y2="51.195"/>
	
		<line display="inline" fill="none" stroke="#497A8D" stroke-linecap="round" stroke-miterlimit="10" x1="675.067" y1="12.738" x2="936.031" y2="12.738"/>
	
		<line display="inline" fill="none" stroke="#497A8D" stroke-linecap="round" stroke-miterlimit="10" x1="936.031" y1="12.738" x2="936.031" y2="31.815"/>
	
		<line display="inline" fill="none" stroke="#497A8D" stroke-linecap="round" stroke-miterlimit="10" x1="936.031" y1="31.815" x2="916.716" y2="51.13"/>
	
		<line display="inline" fill="none" stroke="#497A8D" stroke-linecap="round" stroke-miterlimit="10" x1="675.067" y1="51.195" x2="639.935" y2="86.326"/>
	
		<line display="inline" fill="none" stroke="#497A8D" stroke-linecap="round" stroke-miterlimit="10" x1="1136.504" y1="51.195" x2="1378.153" y2="51.195"/>
	
		<line display="inline" fill="none" stroke="#497A8D" stroke-linecap="round" stroke-miterlimit="10" x1="1136.504" y1="12.738" x2="1397.468" y2="12.738"/>
	
		<line display="inline" fill="none" stroke="#497A8D" stroke-linecap="round" stroke-miterlimit="10" x1="1397.468" y1="12.738" x2="1397.468" y2="31.815"/>
	
		<line display="inline" fill="none" stroke="#497A8D" stroke-linecap="round" stroke-miterlimit="10" x1="1397.468" y1="31.815" x2="1378.153" y2="51.13"/>
	
		<line display="inline" fill="none" stroke="#497A8D" stroke-linecap="round" stroke-miterlimit="10" x1="1136.504" y1="51.195" x2="1107.648" y2="80.051"/>
	<polygon display="inline" fill="#9DD1D9" points="1180.118,110.9 1170.335,110.9 745.167,110.9 455.384,110.9 460.196,114.674 
		745.167,114.68 756.667,114.703 759.251,114.691 1169.335,114.703 1169.335,114.68 1175.306,114.674 	"/>
	<polygon display="inline" fill="#9DD1D9" points="213.172,51.653 209.752,55.072 280.431,55.652 286.446,51.653 	"/>
	<polygon display="inline" fill="#EFA54D" points="380.91,8.224 386.91,12.224 298.308,12.224 304.308,8.224 	"/>
	<polygon display="inline" fill="#9DD1D9" points="675.417,51.653 671.998,55.072 742.676,55.652 748.691,51.653 	"/>
	<polygon display="inline" fill="#EFA54D" points="843.156,8.224 849.156,12.224 760.553,12.224 766.554,8.224 	"/>
	<polygon display="inline" fill="#9DD1D9" points="1136.684,51.653 1133.265,55.072 1203.942,55.652 1209.958,51.653 	"/>
	<polygon display="inline" fill="#EFA54D" points="1304.422,8.224 1310.422,12.224 1221.819,12.224 1227.819,8.224 	"/>
</g>
<g>
	
		<line fill="none" stroke="#497A8D" stroke-linecap="round" stroke-miterlimit="10" x1="1.081" y1="101.141" x2="1529.58" y2="101.141"/>
	<polygon fill="#9DD1D9" points="136.033,101.361 132.22,98.588 70.714,98.588 66.845,95.492 8.081,95.492 1.081,101.361 	"/>
	<polygon fill="#9DD1D9" points="1394.629,101.361 1398.441,98.588 1459.947,98.588 1463.816,95.492 1522.58,95.492 
		1529.58,101.361 	"/>
	<rect x="261.949" y="90.865" opacity="0.25" fill="#9DD1D9" width="1024" height="10"/>
	<g>
		
			<line fill="none" stroke="#497A8D" stroke-linecap="round" stroke-miterlimit="10" x1="276.593" y1="90.865" x2="289.79" y2="77.67"/>
		
			<line fill="none" stroke="#497A8D" stroke-linecap="round" stroke-miterlimit="10" x1="290.077" y1="77.443" x2="588.284" y2="77.443"/>
	</g>
	<g>
		
			<line fill="none" stroke="#497A8D" stroke-linecap="round" stroke-miterlimit="10" x1="787.345" y1="101.262" x2="817.215" y2="71.393"/>
		
			<line fill="none" stroke="#497A8D" stroke-linecap="round" stroke-miterlimit="10" x1="817.501" y1="71.168" x2="1055.998" y2="71.168"/>
	</g>
	
		<line fill="none" stroke="#497A8D" stroke-linecap="round" stroke-miterlimit="10" x1="161.98" y1="42.312" x2="403.629" y2="42.312"/>
	
		<line fill="none" stroke="#497A8D" stroke-linecap="round" stroke-miterlimit="10" x1="161.98" y1="3.855" x2="422.943" y2="3.855"/>
	
		<line fill="none" stroke="#497A8D" stroke-linecap="round" stroke-miterlimit="10" x1="422.943" y1="3.855" x2="422.943" y2="22.932"/>
	
		<line fill="none" stroke="#497A8D" stroke-linecap="round" stroke-miterlimit="10" x1="422.943" y1="22.932" x2="403.629" y2="42.248"/>
	
		<line fill="none" stroke="#497A8D" stroke-linecap="round" stroke-miterlimit="10" x1="161.98" y1="42.312" x2="103.425" y2="100.865"/>
	
		<line fill="none" stroke="#497A8D" stroke-linecap="round" stroke-miterlimit="10" x1="623.417" y1="42.312" x2="865.065" y2="42.312"/>
	
		<line fill="none" stroke="#497A8D" stroke-linecap="round" stroke-miterlimit="10" x1="623.417" y1="3.855" x2="884.381" y2="3.855"/>
	
		<line fill="none" stroke="#497A8D" stroke-linecap="round" stroke-miterlimit="10" x1="884.381" y1="3.855" x2="884.381" y2="22.932"/>
	
		<line fill="none" stroke="#497A8D" stroke-linecap="round" stroke-miterlimit="10" x1="884.381" y1="22.932" x2="865.065" y2="42.248"/>
	
		<line fill="none" stroke="#497A8D" stroke-linecap="round" stroke-miterlimit="10" x1="623.417" y1="42.312" x2="588.284" y2="77.443"/>
	
		<line fill="none" stroke="#497A8D" stroke-linecap="round" stroke-miterlimit="10" x1="1084.854" y1="42.312" x2="1326.503" y2="42.312"/>
	
		<line fill="none" stroke="#497A8D" stroke-linecap="round" stroke-miterlimit="10" x1="1084.854" y1="3.855" x2="1345.817" y2="3.855"/>
	
		<line fill="none" stroke="#497A8D" stroke-linecap="round" stroke-miterlimit="10" x1="1345.817" y1="3.855" x2="1345.817" y2="22.932"/>
	
		<line fill="none" stroke="#497A8D" stroke-linecap="round" stroke-miterlimit="10" x1="1345.817" y1="22.932" x2="1326.503" y2="42.248"/>
	
		<line fill="none" stroke="#497A8D" stroke-linecap="round" stroke-miterlimit="10" x1="1084.854" y1="42.312" x2="1055.998" y2="71.168"/>
	<polygon fill="#9DD1D9" points="1128.468,102.018 1118.685,102.018 693.516,102.018 403.733,102.018 408.546,105.791 
		693.516,105.797 705.016,105.82 707.601,105.809 1117.685,105.82 1117.685,105.797 1123.655,105.791 	"/>
	<polygon fill="#9DD1D9" points="161.521,42.77 158.102,46.19 228.78,46.77 234.795,42.77 	"/>
	<polygon fill="#EFA54D" points="329.26,-0.659 335.26,3.341 246.657,3.341 252.657,-0.659 	"/>
	<polygon fill="#9DD1D9" points="623.767,42.77 620.348,46.19 691.026,46.77 697.041,42.77 	"/>
	<polygon fill="#EFA54D" points="791.506,-0.659 797.506,3.341 708.903,3.341 714.903,-0.659 	"/>
	<polygon fill="#9DD1D9" points="1085.033,42.77 1081.614,46.19 1152.292,46.77 1158.308,42.77 	"/>
	<polygon fill="#EFA54D" points="1252.771,-0.659 1258.771,3.341 1170.169,3.341 1176.169,-0.659 	"/>
</g>
</svg>
