<?xml version="1.0" encoding="utf-8"?>
<!-- Generator: Adobe Illustrator 16.0.0, SVG Export Plug-In . SVG Version: 6.00 Build 0)  -->
<!DOCTYPE svg PUBLIC "-//W3C//DTD SVG 1.1//EN" "http://www.w3.org/Graphics/SVG/1.1/DTD/svg11.dtd">
<svg version="1.1" id="图层_1" xmlns="http://www.w3.org/2000/svg" xmlns:xlink="http://www.w3.org/1999/xlink" x="0px" y="0px"
	 width="51px" height="51px" viewBox="0 0 51 51" enable-background="new 0 0 51 51" xml:space="preserve">
<g>
	<circle fill="none" stroke="#9DD1D9" stroke-miterlimit="10" cx="25.5" cy="25.5" r="25"/>
	<g>
		<path fill="#9DD1D9" d="M25.387,16.916c-5.047,0-9.139,4.09-9.139,9.137c0,5.045,4.091,9.137,9.139,9.137
			c5.045,0,9.137-4.092,9.137-9.137C34.523,21.006,30.432,16.916,25.387,16.916z M25.443,32.775c-3.682,0-6.667-2.984-6.667-6.666
			c0-3.682,2.985-6.666,6.667-6.666c3.682,0,6.667,2.983,6.667,6.666C32.109,29.791,29.125,32.775,25.443,32.775z"/>
		<path fill="#9DD1D9" d="M33.605,37.029c-3.493,0-6.322-2.83-6.322-6.32c0-0.922,0.197-1.793,0.55-2.582
			c-0.521,0.529-1.244,0.857-2.045,0.857c-0.95,0-1.789-0.463-2.314-1.174c0.45,0.867,0.705,1.852,0.705,2.898
			c0,3.49-2.83,6.32-6.322,6.32c-3.49,0-6.32-2.83-6.32-6.32c0-3.494,2.83-6.323,6.32-6.323c2.222,0,4.174,1.145,5.301,2.878
			c-0.156-0.355-0.242-0.742-0.242-1.154c0-1.357,0.943-2.493,2.209-2.793c-3.178-0.332-5.658-3.019-5.658-6.286
			c0-3.491,2.83-6.322,6.321-6.322s6.321,2.831,6.321,6.322c0,3.267-2.478,5.954-5.657,6.286c1.266,0.3,2.21,1.436,2.21,2.793
			c0,0.281-0.043,0.551-0.117,0.807c1.152-1.535,2.99-2.53,5.061-2.53c3.488,0,6.32,2.829,6.32,6.323
			c0,0.963-0.217,1.877-0.605,2.695c0.752-1.424,1.18-3.043,1.18-4.766c0-3.621-1.883-6.801-4.723-8.619
			c-0.18-5.49-4.686-9.887-10.22-9.887c-5.428,0-9.866,4.23-10.205,9.575c-2.912,1.804-4.853,5.025-4.853,8.7
			c0,5.65,4.582,10.23,10.232,10.23c1.634,0,3.18-0.387,4.552-1.068c1.475,0.824,3.176,1.297,4.988,1.297
			c3.412,0,6.432-1.672,8.29-4.24C37.404,36.09,35.614,37.029,33.605,37.029z"/>
		<path fill="#9DD1D9" d="M33.605,37.029c-3.493,0-6.322-2.83-6.322-6.32c0-0.922,0.197-1.793,0.55-2.582
			c-0.521,0.529-1.244,0.857-2.045,0.857c-0.95,0-1.789-0.463-2.314-1.174c0.45,0.867,0.705,1.852,0.705,2.898
			c0,3.49-2.83,6.32-6.322,6.32c-3.49,0-6.32-2.83-6.32-6.32c0-3.494,2.83-6.323,6.32-6.323c2.222,0,4.174,1.145,5.301,2.878
			c-0.156-0.355-0.242-0.742-0.242-1.154c0-1.357,0.943-2.493,2.209-2.793c-3.178-0.332-5.658-3.019-5.658-6.286
			c0-3.491,2.83-6.322,6.321-6.322s6.321,2.831,6.321,6.322c0,3.267-2.478,5.954-5.657,6.286c1.266,0.3,2.21,1.436,2.21,2.793
			c0,0.281-0.043,0.551-0.117,0.807c1.152-1.535,2.99-2.53,5.061-2.53c3.488,0,6.32,2.829,6.32,6.323
			c0,0.963-0.217,1.877-0.605,2.695c0.752-1.424,1.18-3.043,1.18-4.766c0-3.621-1.883-6.801-4.723-8.619
			c-0.18-5.49-4.686-9.887-10.22-9.887c-5.428,0-9.866,4.23-10.205,9.575c-2.912,1.804-4.853,5.025-4.853,8.7
			c0,5.65,4.582,10.23,10.232,10.23c1.634,0,3.18-0.387,4.552-1.068c1.475,0.824,3.176,1.297,4.988,1.297
			c3.412,0,6.432-1.672,8.29-4.24C37.404,36.09,35.614,37.029,33.605,37.029z"/>
	</g>
</g>
</svg>
