<?xml version="1.0" encoding="utf-8"?>
<!-- Generator: Adobe Illustrator 16.0.0, SVG Export Plug-In . SVG Version: 6.00 Build 0)  -->
<!DOCTYPE svg PUBLIC "-//W3C//DTD SVG 1.1//EN" "http://www.w3.org/Graphics/SVG/1.1/DTD/svg11.dtd">
<svg version="1.1" id="图层_1" xmlns="http://www.w3.org/2000/svg" xmlns:xlink="http://www.w3.org/1999/xlink" x="0px" y="0px"
	 width="272px" height="215.1px" viewBox="0 0 272 215.1" enable-background="new 0 0 272 215.1" xml:space="preserve">
<g>
	<g>
		<g>
			<path fill="#497A8D" d="M271.213,1.356v213.01H1.699V1.356H271.213 M272.213,0.356H0.699v215.01h271.514V0.356L272.213,0.356z"/>
		</g>
	</g>
	<g>
		<g>
			<g>
				<defs>
					<rect id="SVGID_2_" x="0.699" y="0.356" width="271.514" height="215.055"/>
				</defs>
				<clipPath id="SVGID_3_">
					<use xlink:href="#SVGID_2_"  overflow="visible"/>
				</clipPath>
				<g clip-path="url(#SVGID_3_)">
					<path fill="none" stroke="#8ABCC7" stroke-miterlimit="10" d="M165.725,406.39c-2.61-0.85-5.227-1.715-8.721-2.571
						c-4.357-3.438-2.611-6.015-2.611-10.313c0.871-4.294,0-3.433,4.357-4.294c0-0.864,0.873-1.72,1.748-1.72
						c0-1.724,0-3.436,0-5.155c0,0,0,0,0.869,0c0.873,0,2.615,0.854,5.227,0c2.617-0.86,4.361-2.575,6.977-4.293
						c4.361,0,7.841,0,12.203,0c0.871,0,3.48,1.718,3.48,5.146c-0.861,1.722-1.734,3.442-3.48,5.156
						c-1.746,2.579-3.485,5.158-4.362,9.458c-4.354,2.575-8.716,5.155-13.07,7.736C167.471,406.39,166.594,406.39,165.725,406.39
						L165.725,406.39z"/>
					<path fill="none" stroke="#8ABCC7" stroke-miterlimit="10" d="M310.422,245.727c-4.356-0.855-6.098-1.719-7.844-3.439
						c-0.877-2.578-1.744-6.014-2.613-9.448c-0.877-0.858-1.744-0.858-3.492-1.717c-0.873-0.854-1.74-0.854-2.611-0.854
						c1.738-5.16-4.358-11.176-6.977-12.894c0-2.576,3.482-4.303,4.355-6.016c0-2.58,2.621-3.437,4.359-5.153
						c0.873-0.86,0.873-1.72,1.746-2.578c0-1.718,0-6.877,0.874-6.877c0.867-0.853,2.613-3.437,5.229-0.853c1.74,0,2.615,0,4.354,0
						c1.744-2.584,5.236-1.726,8.722-0.863c0.871,1.716,4.356,3.438,7.848,1.716c1.742-0.853,3.479-4.292,6.1-1.716
						c1.74,0.863,2.615,0.863,4.359,1.716c1.738,0,3.482,0,5.227,0.859c0,0.861-9.586,5.155-6.098,8.596c0.871,0,2.609,0,4.354,0
						c0-0.86,0.875-1.72,1.743-1.72c0,0,0.869,2.577-0.868,3.438c-2.619,0.855-3.486,0.855-5.229,2.579c0,0.856,0,1.715,0,2.569
						c0.871,0,1.742,0.865,3.484,0.865c-0.875,2.58-0.875,4.298-0.875,7.729c0,1.719,0.875,5.155,0,6.02
						c-0.867,0-0.867,0.854-1.738,0.854c0-0.854,0-1.717,0-1.717c-2.619-2.575-6.98,4.299-8.717,6.016c0,0,0,1.718-0.875,2.582
						c0,2.573,0,5.151,0,7.729c-0.867,0-0.867,0-1.744,0C317.395,243.15,314.779,244.008,310.422,245.727L310.422,245.727z"/>
					<path fill="none" stroke="#8ABCC7" stroke-miterlimit="10" d="M307.803,52.412c-0.864,0-0.864,0-0.864,0
						c1.737-3.437,2.608-3.437,4.354-5.155c0-0.855,0.875-1.719,1.746-2.581c0-0.854,0-1.716,0-2.572
						c-1.746,0-2.617-0.86-3.492-1.721c-0.871-5.157,1.746-6.01,4.357-9.448c1.746-2.579,0.875-6.016,0.875-8.591
						c-1.74-1.721-3.486-4.298-5.232-6.016c-0.871,0-1.744,0-2.608,0c-1.748,0-3.488,0.855-5.236,0.855
						c-2.613,2.579-4.354,5.159-6.97,7.734c-1.743,2.578-3.491,6.016-6.104,8.593c-3.482-3.441-7.844-5.156-10.463-7.736
						c-2.607,0-4.355-1.717-5.227-2.573c0-3.438,0-3.438,2.619-4.297c0.866-0.858,1.733-2.576,3.481-3.437
						c0-2.583-0.875-5.159-0.875-7.735l0,0c-0.873-0.858-0.873-0.858-0.873-1.718c-0.867-0.86-0.867-1.722-1.733-2.578
						c0-2.577,0-4.293,1.733-5.156c0.873,0,1.748,1.722,2.617,4.301c2.614,1.713,2.614,3.435,7.844,2.573
						c0.875-0.86,1.748-1.718,2.613-2.573c4.364-2.579,9.598-7.735,13.957-11.171c1.74-1.718,3.479-4.299,4.352-6.016
						c3.492-0.854,5.229-2.577,9.59,0c0.867,0,1.746,0,3.488,0c0-0.854,0.875-1.715,1.74-2.577c0-2.578,0-4.3,0-6.876
						c0-0.854,0.877-1.715,0.877-2.577c1.742,0,4.354,1.723,6.1,4.299c1.74,1.719,1.74,2.576,5.23,2.576
						c0.867-0.857,0.867-2.576,0.867-2.576c0.875-0.861,0.875-1.722,1.743-1.722l0.875,0.859c0,1.717,0.869,3.438,0.869,6.017
						c1.744,1.723,4.361,5.153,7.847,8.593c0,2.573,0,5.156,0,7.733c0.873,0.857,1.743,1.716,1.743,2.578
						c1.74,0.858,3.488,1.715,5.232,3.433c0.873,0.86,2.609,1.72,3.482,2.578c0,0.858-8.716,6.873-9.586,7.735
						c-0.873,0.859-1.742,1.716-2.617,2.577c-1.74,1.718-3.488,3.436-4.357,5.155c-0.875,1.718-0.875,3.438-1.744,5.153
						c-1.744,0.854-2.612,1.715-4.354,1.715c-7.853,1.721-13.072,5.155-17.437,12.033c-0.871,0-0.871,0.856-0.871,1.718
						c-0.87,2.58-1.743,5.155-2.614,7.732C312.168,52.412,309.547,52.412,307.803,52.412L307.803,52.412z"/>
					<path fill="none" stroke="#8ABCC7" stroke-miterlimit="10" d="M-93.16,99.665c-0.873-0.858-1.746-0.858-2.618-0.858
						c-0.871-1.721-1.74-2.577-3.488-3.434c-3.487,0-3.487-0.86-5.227,2.57c-0.874-0.857-0.874-0.857-1.743-0.857
						c-0.877,0-2.618,0-3.487,0.857c-1.741-2.57-0.873-4.292-1.741-5.147c-0.875-0.859-1.747-0.859-2.62-1.727
						c-4.356-4.293-7.845-6.868-13.074-4.293c-4.359,0-7.843,0.86-11.332,0c-1.745,0-3.481-0.859-5.232-1.717
						c-1.745,0-3.483,0-4.358,0c-3.485,2.577-7.84,4.293-9.588,7.735c-1.742,0-3.482,0-5.227,0
						c-1.743-0.859-2.615-1.727-4.355-2.578c-3.49,0-4.368,0-5.232,0.853c-1.748,0.866-2.62,0.866-4.36,1.727
						c-3.483,0-5.232,0.855-7.846,1.717c-4.36,0-10.46-2.576-11.333-4.295c0-5.157-0.864-4.301-3.487-6.017
						c-5.229,0-4.359,0-6.971,3.437c-3.485,1.716-6.973,0.859-9.587,2.58h-0.871c0-0.864-0.877-0.864-0.877-1.721
						c-3.483-4.296-8.713-6.016-13.07-6.016c-5.232,3.436-6.975,5.155-8.715,10.313c-2.618,2.577-3.484,4.29-6.976,4.29
						c-1.745,0-2.612-0.856-4.354-0.856c-0.875-0.855-1.75-1.717-2.62-1.717c-0.871-4.295-5.226-5.159-6.973-6.016
						c-0.871-0.859-0.871-1.721-1.739-2.58c0-1.716,0-3.436,0-6.014c0.868-0.858,0-3.435,0-3.435
						c-1.744-5.16-6.104-4.294-9.594-5.16c-0.871-0.854-0.871-1.715-1.739-2.573c-1.749-1.718-2.623-3.44-3.487-6.013
						c-1.753,0-3.488-0.86-5.233-0.86c-1.744-3.438,0.873-6.876,1.745-9.45c0-5.155-3.489-7.736-6.102-10.31
						c-2.62-0.86-4.356-1.721-6.971-3.438c0,0-0.875,0-0.875-0.859c0-5.155,0-4.295,5.226-6.017c0.872-0.855,2.62-2.582,2.62-3.436
						c0-4.297,0-9.45,0-13.749c-0.874-6.873-6.101-5.151-9.591-5.151c-0.872,0-0.872,0.854-1.741,0.854c0,0.86,0,0.86,0,0.86
						c-0.874-3.438-0.874-4.296-0.874-6.016c0.874-0.86,2.615-0.86,3.491-1.718c0-0.855,0-2.577,0-3.436
						c-3.491-5.156-4.363-1.722,1.744-6.019c0.871-1.719,2.615-3.437,3.485-5.148c2.612-0.863,4.358-1.724,6.098-2.581
						c6.978,0,10.464,0,15.693-2.573c0.872,0,1.74,0,2.61,0c0,1.715,0.877,6.013,5.233,6.867c1.747,0,4.359,0,6.102-0.854
						c1.74-2.581,2.616-4.298,4.36-6.013c2.612,0,4.357,0.859,7.843,0c0.872-1.724,1.743-1.724,3.48-3.44c0.876,0,1.748,0,2.619,0
						c2.615,0.857,4.36,1.718,7.847,1.718c3.486-1.718,9.59-0.859,14.818-2.575c1.743-0.863,3.487-2.58,5.228-3.439
						c0.873-1.715,1.745-3.434,1.745-4.296c4.357-1.716,5.229-6.871,6.105-10.307c1.743-0.859,4.353-1.719,5.225-2.582
						c0.873-1.713,1.74-3.435,1.74-5.154c0-2.573,0.88-5.153,0.88-7.728c-0.88-1.719-0.88-2.58-0.88-3.444
						c0-5.151,1.749-9.448,0-12.025c-0.867,0-0.867-0.857-0.867-0.857c5.227,0,9.587,0,14.821,0.857
						c3.484,1.724,6.972,0,11.33,3.438c0.875,0,1.744,0,2.615,0c0.872-0.86,0.872-1.715,1.737-1.715c0-0.863,0-1.724,0-2.581
						c-0.866-2.576-0.866-5.153,0-6.875c2.623-2.575,4.363-4.291,6.104-6.018c0.873-5.152,2.62-6.008,5.233-9.447
						c0.87-2.575,0-3.437,3.487-3.437c2.614,1.717,6.103,3.437,8.713,6.016c1.745,0,5.233,0,7.846,2.575
						c3.485,0,10.46,0,12.205-4.295c0-3.436-0.873-6.872-0.873-10.309c3.486-6.875,7.846-6.875,15.69-7.732
						c2.613-0.858,3.491-3.438,4.356-5.152c0-0.861,0.872-1.726,1.744-1.726c1.748-0.852,4.36-0.852,6.105-0.852
						c0.87,0.852,1.74,6.012,2.612,8.587c1.748,3.436,4.36,6.012,6.103,9.45c1.743,0.86,5.229,1.721,8.72,2.578
						c1.738,0.858,2.612,2.575,4.358,3.436c0.872,0.859,1.743,2.58,2.607,3.438c0,2.575,0,5.155,0.877,7.731
						c0.871,1.721,1.74,3.438,2.613,5.153c0,2.577,1.743,8.593-0.873,12.029c-6.097,3.437-5.225,1.724-5.225,8.594
						c0,0.861,0,3.436,1.743,6.01c1.742,0.865,3.482,2.583,5.227,3.438c1.743,0,4.36,0.859,6.97,1.721
						c4.366,3.439,9.589,3.439,16.563,3.439c1.746,0.854,6.108,4.294,8.718,6.871c1.744,2.578,4.36,4.295,6.103,6.014
						c2.615,0,5.229,0.857,6.972,3.438c0.875,2.574,1.741,6.87,3.487,10.313c0.868,0.854,2.614,0.854,3.488,3.432
						c0,1.722-0.874,2.576-0.874,4.294c0.874,0.859,0.874,1.719,1.746,3.439c-3.492,1.719-3.492,1.719-4.36,6.018
						c0,1.715,0,3.433,0,5.151c0,1.718,0.868,3.436,0.868,5.153h-0.868c-3.487,0.857-6.975,0.857-10.459,0.857
						c-7.846,0.86-11.335,1.721-13.949,8.596c-1.743,2.577-3.482,3.438-4.355,6.874c-3.492,2.579-8.715,2.579-12.204,2.579
						c0,1.717-1.747,4.291-3.487,6.013c-0.872,2.576,0,5.156,1.74,9.454c0,1.719,0,2.575,0,4.291c-2.612,0-5.23,0.861-7.846,1.721
						c-2.618,0-4.353,1.716-6.097,2.574c-6.977,2.577-13.949,3.438-20.052,3.438c-2.615,0-2.615,0-4.358,0.862
						c0,2.576,0,2.576,2.615,5.156c-2.615,3.434,0,6.013,3.485,8.591c1.748,0.855,2.612,2.576,3.491,4.291
						c1.739,0.862,2.612,1.721,2.612,5.157c-0.874,0.859-1.743,0.859-1.743,1.719c-5.232,2.576-5.232,1.717-5.232,7.735
						c0.872,0.859,2.62,2.576,2.62,6.008C-90.548,99.665-92.291,99.665-93.16,99.665L-93.16,99.665z"/>
					<path fill="none" stroke="#8ABCC7" stroke-miterlimit="10" d="M-74.858,255.175c-1.745-1.718-11.33-0.854-12.199-0.854
						c-0.878,0-1.743,0-1.743,0.854c-8.718-0.854-4.36-4.294-2.62-8.591c0-0.857,0-1.714,0-2.576
						c-6.098-1.722-5.229-3.438-6.098-6.879c-0.873,0-0.873-0.855-0.873-0.855c-3.485,0-5.23-0.854-7.845-0.854
						c-0.877-1.724-1.743-2.582-2.618-3.44c-3.486-1.712-6.973-3.439-8.718-4.294c-0.87-0.863-0.87-0.863-1.738-0.863
						c-1.748,0-3.491,0-5.232,0c-2.617,1.718-3.488,3.445-6.105,5.157c-0.871,0-1.743,0.858-2.609,1.718
						c0,0.858-0.874,0.858-0.874,1.724c0,1.709-0.872,4.288-0.872,6.016c-6.97-0.864-5.233-6.88-3.488-11.168
						c0-0.867,0-1.729,0-1.729c-2.609-2.576-2.609-1.718-5.232-2.576c-6.098,1.723-8.713,1.723-13.073,4.305
						c-4.355,0-6.1-3.445-6.978-5.16c-0.866-0.859-1.737-1.723-2.608-2.579c-3.489,0-7.85,0-11.333,0
						c-3.487-1.72-3.487-6.011-5.227-7.729c-2.615-0.86-2.615-0.86-3.488-2.581c-0.875-0.857-1.744-1.715-2.62-2.575
						c-2.612-0.861-4.36-0.861-6.1-1.719c-6.102-5.157-4.359-6.014-5.225-11.173c-0.877-0.853-0.877-1.716-1.748-2.577
						c-1.745,0-4.357,0-6.102,0c-5.228-1.715-4.356-3.439-5.228-6.014c-1.743-1.718-3.485-2.578-4.363-3.433
						c-2.615-1.726-4.353-3.437-6.101-5.16c-1.744-2.57-3.484-5.151-5.224-7.729c-2.618,0-3.491,0-5.23,0.861
						c-1.748,0-2.619,0.857-4.367,1.717c-1.739,0-3.481,0-5.227,0c-4.357-3.438-5.224-7.734-5.224-11.171
						c-1.743-1.724-3.494-4.296-4.363-6.872c-4.358-4.299-10.456-6.017-14.816-6.875c-3.489-2.578-1.745-4.294-0.875-6.013
						c1.747-0.861,2.615-3.438,2.615-3.438c0-3.44,0-6.87,0-10.311c-1.74-5.154-2.615-5.154,1.747-5.154
						c0.874,0,0.874,0.857,1.74,0.857c0.877,1.719,3.488,7.736,6.975,3.435c0-1.716,0.874-3.435,0.874-4.292
						c0-3.434,0-6.012,0-9.451c-1.746-2.578-2.618-4.297-3.486-6.871c-0.875-5.152,0-7.733,2.612-9.453
						c0.874-0.862,0.874-1.721,1.743-2.577c1.74,0.856,3.491,1.715,6.101,2.577c0.872,0,2.617,0,5.236,0
						c0.867-1.721,2.609-2.577,4.348-4.294c1.748-5.159,3.494-7.735,8.726-10.312c1.74,0,1.74,0,4.351,0.858
						c1.744,1.717,4.362,2.577,6.979,4.293c0,3.442,4.354,1.717,6.971,0.864c1.745,0,3.485-0.864,5.23-0.864
						c3.485-3.437,3.485-5.151,8.715-1.716c0,4.299,0,3.433,4.355,6.875c1.749,0,3.488,0.86,5.236,1.717c1.744,0,2.618,0,4.354,0
						c2.619-0.855,5.236-2.577,9.588-2.577c5.235-1.716,4.36-2.582,10.458,0c2.623,0,4.363,0,6.104,0.86
						c2.62-1.717,1.748-3.442,4.361-4.295c4.359-3.44,6.973-5.157,13.948-1.721c4.357,0,11.33-0.859,17.43-0.859
						c0.872,0.859,2.62,1.716,3.488,1.716c1.742,1.717,3.489,3.442,6.102,4.299c0,0.86,0,2.577,0,3.435
						c1.743,1.721,5.226,4.296,3.486,8.594c-0.87,1.724-1.743,3.439-2.611,5.154c0,1.719,0,3.438,0,5.157
						c0.868,9.448-0.875,18.899,7.843,27.493c0.868,0.857,4.355,2.58,6.972,3.435c1.743,0.857,4.358,0.857,6.101,1.72
						c3.491,5.156,7.846,7.733,15.69,8.592c3.491,2.576,5.234,5.155,11.332,6.015c5.23-0.858,10.465-0.858,15.688-0.858
						c0.872,0.858,1.749,0.858,3.492,1.72c0.873,0.856,2.612,1.716,4.355,2.575c0.873,2.581,2.613,4.297,3.491,6.876
						c0.867,4.296,0.867,4.296,5.227,8.59c0.872,0,2.617,0,3.488,0c0-0.854,0.872-1.718,1.743-2.579
						c0.875,0,1.739-0.854,2.615-0.854c0,1.716,1.741,3.434,4.357,3.434c1.741-0.854,3.487-2.579,5.23-3.434
						c1.745-2.581,3.488-6.015,6.1-7.735c0,0,0,0,0.875,0c0,0.859,2.612,2.579,5.231,4.294c0.869,3.441,4.355,7.73,8.715,12.029
						c0.872,3.433,1.741,6.872,2.612,9.449c1.749,2.582,3.49,5.159,3.49,9.455c-3.49,4.297-3.49,3.437-3.49,9.445
						c0.872,2.585,3.49,6.016,1.749,10.313c0,0.859,0,1.723,0,2.576h-0.876c0-0.854-1.744-1.717-2.612-2.576
						c-3.491,0-4.362,0.859-6.105,2.576c0,1.729,0.874,4.299,1.743,8.59c0,0.864-0.87,2.579-0.87,3.442c0,0-0.874,0.863-1.74,0.863
						c-0.877,0-2.615,0-3.49,0c-1.744-2.581-3.485-4.307-4.356-6.016c-6.104-2.582-9.593,1.709-8.718,7.729
						c0,0.857-0.875,0.857-0.875,1.721c-2.612,0-6.1-0.862-6.1-1.721c-0.87-1.715-0.87-2.578-0.87-3.441
						c-4.357-1.715-6.974-2.579-9.591-3.436c-0.87-0.854-0.87-1.718-1.736-2.575c-5.236,0-4.363,0.857-7.848,4.296
						c-2.615,0.86-4.363,1.715-6.103,3.441c-5.23,0.852-4.355,0.852-6.973,5.148c-6.103,0.862-6.103,0.862-9.59,5.156
						c-0.873,0.854-0.873,0.854-1.743,1.717C-70.495,253.457-72.239,254.32-74.858,255.175L-74.858,255.175z"/>
					<path fill="none" stroke="#8ABCC7" stroke-miterlimit="10" d="M-29.531,181.291c-1.743-1.725-3.488-2.578-4.358-4.295
						c-0.867-4.299-2.612-7.734-4.357-10.315c-3.488-4.295-6.1-4.295-9.592-6.015c-5.223,0-10.458,0.854-15.688,0.854
						c-5.233-0.854-7.84-3.432-10.46-6.011c-5.229-0.856-9.586-1.716-13.07-4.294c0-0.86-1.743-2.578-1.743-3.439l-0.873-0.857
						c-4.361-0.854-7.845-1.716-10.465-3.435c-6.098-1.722-7.841-10.309-8.715-13.748c-0.87-6.873-0.87-12.886-0.87-18.902
						c0.87-1.715,2.61-5.154,2.61-6.871c0-2.581-1.74-4.298-1.74-5.156c0.875,0,1.74,0,1.74,0c0.877,0.858,2.62,0,3.492,0
						c0.868-0.862,0.868-0.862,0.868-1.721c3.487-1.713,4.363,1.721,8.72,3.439c0.873,0,4.361,0.855,6.098,0
						c0-0.86,0.878-1.72,0.878-1.72c0-1.721,0-2.577,0-3.434c-1.743-3.438-4.363-5.155-2.615-6.876
						c1.737-1.721,2.615-1.721,4.354-2.58c0-0.856,0.874-1.716,1.746-1.716c2.616-6.015-0.872-6.877-3.484-8.592
						c-0.878-3.435-3.491-6.016-5.233-6.016c0-0.858-0.87-1.719-0.87-2.576c1.74-2.575-0.873-5.155-1.746-6.019c0,0,0,0,0-0.86
						c6.106-1.716,14.818-0.854,21.793-2.575c5.23-3.437,10.458-5.151,18.307-5.151c0.869,0,1.744,0.857,2.617,0.857
						c6.099,0,12.197-0.857,18.3,1.717c4.358,2.577,7.846,5.152,11.331,7.736c0.872,0,0.872,0.855,1.745,1.72
						c1.743,0.853,4.355,3.434,8.718,5.151c1.743,0,3.486,0,4.355,0c0.875-0.858,1.746-1.719,2.615-1.719
						c0-3.434,0-6.014-0.869-7.736c1.742-0.854,4.36-0.854,6.975-0.854C1.847,60.14,3.59,61,5.335,62.724
						c2.617,0,5.229,0.855,9.592,1.72c1.738,0.853,3.481,1.718,5.231,2.575c1.736,0.857,3.484,1.718,5.227,3.438l0,0
						c0,0.854,0.871,0.854,0.871,1.721c2.617,0,5.227,0,7.85-0.866c1.735,2.58,3.48,4.301,6.095,6.878
						c2.623,1.717,5.229,4.295,7.845,6.015c1.745,0.858,2.62,0.858,4.362,1.716c1.743,0,4.363,0,6.969,0
						c1.745,1.721,3.49,7.734,4.363,11.169c0.866,2.579,1.744,5.156,2.611,7.731c0.873,1.726,0.873,4.302,0.873,6.017
						c0.871,1.719,4.357,5.157,0.871,7.736C62,122.006,62,122.864,57.637,129.737c-1.743,0.855-3.485,2.578-4.363,3.439
						c-0.866,0.857-0.866,1.715-0.866,2.576c1.743,0.854,3.486,2.572,5.229,4.294c0,2.576-4.363,1.717-4.363,1.717
						c-1.735-0.854-3.483-1.717-5.228-3.438c-2.615,0-7.845,0-8.718,0.858c0,4.301,0,7.734,5.231,12.032c0,1.718,0,3.438,0,5.155
						c0.872,2.575,1.745,5.148,2.617,7.732c0,2.575-2.617,2.575-5.229,2.575c-2.62,0.859-2.62,0.859-4.361,2.581
						c-0.876,0-1.746,0-1.746,0c0-0.862-0.87-1.722-0.87-1.722c-1.745,0-2.613-0.859-4.359-0.859c0-0.86-0.869-1.719-1.739-1.719
						c-0.876,0-1.74,0-2.617,0c0,0-2.614,1.719-3.491,1.719c0-0.86-0.871-1.719-0.871-1.719c-1.736-0.856-2.615-0.856-4.354-0.856
						c-1.745-2.584-4.359-5.157-6.1-6.875c0-0.857-0.876-1.72-0.876-1.72c0-5.154-2.612-6.872-5.229-9.445
						c-3.488-0.861-6.97-0.861-9.588-0.861c-5.23,0.861-3.487,0.861-4.356,6.014c0.869,1.718,2.615,3.438,3.484,4.294
						c0,1.72,0,2.579,0,3.438c-1.74,1.719-6.098,4.297-3.484,8.593c0,1.722-3.486,6.017-5.231,7.73
						c-0.875,2.581-2.618,2.581-4.355,3.441c0,0.854-0.875,0.854-0.875,1.716c-2.616,0-2.616-1.716-3.488-2.576
						c-1.746-0.855-4.355,0-5.227,0C-28.656,179.567-28.656,180.429-29.531,181.291L-29.531,181.291z"/>
					<path fill="none" stroke="#8ABCC7" stroke-miterlimit="10" d="M131.731,131.451c-4.358-3.433-7.847-3.433-12.201-3.433
						c-0.875,0.854-1.744,0.854-2.621,0.854c-3.485,5.16-1.745,10.311,0.877,16.329c0,2.573,0.869,5.152,0,8.592
						c-2.622,0-5.234,0-7.85,0c-1.74,0.858-0.873,0.858-1.74,3.436c0.867,0.859,1.74,1.718,3.484,2.576c0,0.859,0,0.859,0,1.715
						c-0.871,1.724-1.744,3.44-1.744,4.299c-3.488,0-4.354,1.721-6.968,2.579c-2.62,0-6.104,0-8.724,0.862
						c0-0.862,0-0.862-0.871-0.862c-0.87-1.719-2.615-2.579-3.484-2.579c0-0.857,0-1.715-0.871-2.575
						c-0.875-2.578-1.746-4.297-2.617-6.872c-1.74-0.861-2.613-1.719-4.358-2.577c-1.745-2.578-4.357-3.438-6.105-4.298
						c-0.866-0.858-1.743-0.858-2.609-1.721c-3.487-7.729-5.231-6.868-11.328-3.435c-1.745,2.576-1.745,1.723-1.745,5.154
						c0.868,1.72,1.745,2.575,1.745,5.156c-1.745,0.856-1.745,1.719-4.363,2.576c0,0-0.866,0-1.743,0
						c-5.229-2.576-9.59-6.014-11.335-8.592c-3.486-1.72-3.486-7.729-3.486-8.592c1.75,0,4.357,0,6.103,0
						c1.743,0.86,3.489,2.576,5.232,3.438c1.743,0,4.363,0.857,6.969-1.722c0-0.855,0-1.717,0-2.579
						c-2.606-1.717-4.357-4.293-5.226-5.149c3.485-1.72,8.715-7.733,9.589-11.171c1.744-0.857,3.484-1.715,4.355-2.577
						c0.873,0,1.744-1.716,2.617-2.576c0-1.72,0-3.438,0-5.157c-3.488-3.434-1.744-8.59-2.617-8.59
						c-0.871-2.581-2.611-5.156-3.489-6.877c0-1.713,0-3.435-0.866-5.149c-0.874-2.583-2.618-6.876-3.486-7.734
						c-2.618,0-4.36,0-6.98,0c-4.355-0.859-8.715-5.156-11.326-6.015c-1.747-2.577-4.361-6.012-6.977-8.593
						c-1.745,0-2.613,0.86-4.359,0.86c-0.869,0-1.739,0-3.479,0c-1.748-1.72-4.368-3.438-6.108-5.16
						c-2.617-0.853-4.36-1.716-6.098-2.571C10.565,61.863,7.953,61,5.335,61c-4.355-4.293-6.101-2.576-10.461-3.437
						c-0.869,0.859-1.74,1.723-2.615,1.723c0,2.576,1.746,4.293,0.875,7.731c-4.358,4.291-12.205-3.438-13.948-5.155
						c-1.745-1.724-3.491-3.438-6.1-4.299c-3.488-2.577-6.976-4.294-10.465-5.151c-6.095,0-12.201,0-17.428-1.721h-0.874
						c0-2.572-1.748-6.871-1.748-6.871c-0.869-3.438-2.609-6.015,0-6.874c0.877-1.722,1.748-3.436,2.622-4.296
						c3.484,0,8.716,0,12.202-3.442c0-1.711,0.87-2.569,0.87-3.434c1.743-1.717,2.616-2.573,3.488-3.432
						c2.612-7.737,5.227-6.875,13.942-7.737c0.876,0,8.721,0,11.335-1.721c0-2.576-0.872-5.152-0.872-6.87
						c0-4.293,0-11.17,5.231-8.592C-4.255-1.72,0.101-0.856,4.46-0.856C3.59,0.86,3.59,3.438,3.59,5.155
						c1.745,2.578,2.62,3.438,4.362,6.873c0,1.719,0,2.578,0,3.44C7.08,18.045,5.335,19.763,6.209,23.2
						c1.743,1.718,4.355,3.438,6.103,6.007c0,0,0.87,0.861,0.87,1.727c0,1.717,0,3.438,0,6.013c0.873,0,2.614,0,4.359,0
						c4.354-3.436,11.333-4.296,18.3-4.296c0,0.86,0.87,1.723,0.87,2.574c-0.87,1.722-1.739,3.44-1.739,4.298
						c-3.488,4.298-6.974,3.438-6.098,9.453c0.87,0,2.61,0.855,4.353,1.716c1.745,2.578,2.615,3.437,6.975,6.016
						c0.872,1.717,1.747,6.017,4.358,6.872c1.745,1.716,3.487,3.438,5.232,5.156c0.875,0.858,6.103,3.439,7.846,0
						c0-6.013-0.866-6.873,4.363-7.735c2.607,0,4.352-0.86,6.969,1.724c0.871,0,1.744,0,2.613,0c2.611-0.86,5.229-3.438,7.846-4.3
						c0.869-0.859,2.614-0.859,5.232-1.717c0.866,1.717,1.74,2.579,1.74,3.433c0,2.584-4.358,6.021-6.973,7.736
						c-2.616,3.434-3.491,6.014-3.491,11.169c1.748,2.578,2.62,4.297,3.491,6.872c1.748,1.721,4.359,5.152,8.715,5.152
						c0-0.853,0-0.853,0-0.853c0.875,0,1.746,0,1.746,0c2.614,0.853,8.713,6.868,11.335,10.309c0,3.438,0.869,7.733,1.744,12.026
						c0,1.72,0,3.438,0.865,4.299c2.614,3.436,2.614,2.575,7.847,6.87c0,0,3.483-1.716,6.105-2.572c0-1.723,0.869-2.578,4.354-3.438
						c3.49-3.438,1.745-6.876-0.867-9.45c-4.363-0.856-4.363-1.717-3.486-5.152c0.869-1.726,1.744-2.581,2.61-4.301
						c0-0.862,0-2.577,0-4.294c0.876-0.86,2.61,0,3.488-0.86c1.745-0.855,2.609-1.716,3.488-2.582c0,0.866,0.869,2.582-0.879,4.304
						c0,0.855,0,1.713,0,3.434c1.748,1.72,6.108,2.575,9.594,3.437c2.616,1.721,5.229,3.438,7.847,5.16c0.871,0,1.743,0,2.614,0
						c-0.871,0.856-1.743,2.572-2.614,4.293c0.871,2.576,0.871,5.155,0.871,8.591c0,0.862-0.871,2.578-0.871,4.296
						c-0.877,0-1.746,0-2.617-0.86c-3.484-0.856-6.1-0.856-7.846,1.719c0,1.719,0,3.435,0,6.012
						C132.602,131.451,132.602,131.451,131.731,131.451L131.731,131.451z"/>
					<path fill="none" stroke="#8ABCC7" stroke-miterlimit="10" d="M86.401,89.354c-1.74-1.716-3.483-3.437-5.225-5.151
						c-1.748-1.72-2.619-3.435-3.491-6.015c0-6.012,0.872-7.731,6.103-11.169c0.873-0.857,1.739-0.857,2.613-1.724
						c0.871-1.716,0.871-2.571,1.742-3.433c0-0.862,0-1.724,0-2.576c-2.616-5.158-5.226-4.3-9.586-2.579
						c-0.872,0.856-1.745,1.717-3.486,2.579c-0.877,0.854-2.615,1.714-4.357,2.576c-1.744-1.724-2.617-1.724-3.488-2.576
						c-10.454,0-10.454-0.862-11.331,9.449c-1.743,1.72-5.229-0.859-6.103-0.859c-1.745-2.581-4.36-5.152-5.232-6.014
						c-1.735-4.299-2.611-6.876-6.098-7.734c-1.75-1.716-3.49-3.437-5.235-6.009c-0.868,0-2.614,0-3.483,0
						c0-4.299,4.363-4.299,6.098-7.736c0.87-1.717,1.746-2.576,2.62-4.294c0-2.577-0.875-3.438-1.75-4.299
						c-6.098,0-13.068,0.86-18.302,2.583c-1.743,1.716-1.743,1.716-3.481,1.716c0-2.577,0-4.299,0-6.881
						c-0.872-0.854-1.745-1.711-2.615-2.569c-1.748-1.72-3.492-3.438-5.232-4.295c0-2.58,0.872-3.438,1.741-6.016
						c0-3.442,0-5.158,0-7.736C7.081,7.733,6.21,6.016,5.335,5.155c0-1.718,0-3.433,0-5.152c5.229,1.721,9.592,2.579,14.824,3.436
						c7.839,0,16.552,0,25.272,0c1.746,0.856,6.978,1.718,9.589,3.438c2.617,1.718,5.235,4.296,8.721,6.012
						c0,0.86,0.866,0.86,1.744,1.721c2.611,0,5.229,0,7.843,0.862c0.866,0.859,1.743,1.716,3.484,2.577
						c2.616,0.858,6.105,1.718,9.589,2.577c2.617,0.857,5.227,6.874,10.463,3.436c1.738-2.577,4.36-3.436,7.844-4.295
						c2.617-2.579,4.355-3.436,8.716-4.295c0-1.723,3.485-1.723,5.231-2.583c2.617-0.857,5.229-3.432,7.839-4.294
						c2.62-0.858,5.237-0.858,8.724-0.858c3.486,0.858,13.947,3.438,17.429,0c6.978-0.858,11.336-6.873,15.693-12.027
						c1.742-1.722,3.488-2.58,5.23-4.295c0.865-0.862,2.606-2.575,4.361-3.438c0.866-0.859,2.61-1.718,4.354-2.576
						c0-1.715,0-2.577,0-4.298c-1.744-1.716-3.488-2.579-5.231-4.296c0-0.859-0.878-2.574-0.878-3.437
						c0.878-5.154,0-8.591,5.232-11.167c0-1.719,3.489,0.857,6.981,4.294c0.861,0,2.605,0,3.484,0.86c1.74,0,2.611,0,4.357,0
						c4.352-1.72,8.709-7.731,12.199-12.028c2.614-2.581,4.362-0.86,8.721-0.86c0.871-1.721,2.613-1.721,5.225-2.575
						c0.875-1.718,2.617-2.583,3.49-3.438c1.744,0,2.613-5.154,2.613-5.154c2.617-6.87,4.356-4.297,10.465-6.87
						c2.611-2.582,4.359-4.297,7.844-6.02c2.613-1.718,11.328-0.858,16.563,0c0.869-0.858,1.744-0.858,2.613-0.858
						c2.611-3.434,0.871-7.731-0.869-10.308c-0.875-0.858-1.744-2.584-3.49-3.438c-1.744-1.717-4.352-2.579-6.971-3.439
						c0-2.575-3.494-5.154-4.361-6.015c-0.871,0-2.616,0-4.358,0c-0.869,0.859-1.74,1.72-1.74,2.58c-1.741,0-3.489,0-5.229,0
						c0,1.72,0,3.435-0.875,5.157c-2.61,1.717-6.973-1.724-8.715-1.724c-0.875,0-2.616,0-3.487,0
						c-2.615,0.86-4.356,1.724-6.103,3.439c-4.356,0-5.227-3.439-5.227-6.016c1.734-0.858,2.613-2.579,4.355-3.438
						c0-4.293,0-6.014,0-7.729c0.871-2.582,1.742-4.301,2.614-6.018c0-4.294,0-6.874,1.742-9.454c0.877,0,2.615,0,3.485,0
						c3.488,0,10.464,1.726,14.818-1.716c2.617-2.573,6.1-4.298,8.717-7.729c0-4.296-0.871-15.468,3.49-17.187
						c2.609-4.294,1.734-8.592,5.225-12.028c-0.87-1.715-0.87-3.439-0.87-6.015v-0.854c-1.744-1.723-2.619-2.582-3.482-3.445
						c-0.87-0.855-1.747-1.716-2.614-1.716c0-4.294,1.744-6.013,5.233-7.729c3.479,0,5.224-2.579,8.711-2.579
						c0,0.858,0.871,1.719,1.742,1.719c0,1.719-0.871,2.577-0.871,4.295c-1.739,1.718-2.614,1.718-2.614,5.154
						c0.875,0.855,1.743,1.72,3.485,2.579c0.869,1.723,1.742,2.576,5.229,2.576c0-1.717,0.871-3.436,0.871-5.155
						c1.748,0,3.482,0,6.101,1.72c0.875,0.858,0.875,0.858,1.747,1.718c0,3.438,0.867,7.731,3.488,10.308
						c0.867,0.86,0.867,0.86,1.738,1.719c1.744-0.858,2.617-0.858,4.355-0.858c4.359-1.717,8.725-0.86,12.209-4.297
						c2.614-6.008,6.973-6.871,10.455-0.854c0.875,2.573,1.746,5.151,3.489,7.732c0,2.575-2.614,11.163-4.354,13.741
						c0,0.864,0,2.581,0,3.437c0.865,2.579,2.61,4.298,3.483,6.878c0,2.573-4.354,8.587,0.871,12.027c0.871,1.72,0,5.154,0,8.594
						c-0.871,0-1.743,0-3.489,0c-1.736-1.719-0.865-3.438-0.865-5.156s0-1.718-1.746-2.576c-6.104,0-1.746,2.576-4.355,6.015
						c-2.612,2.573-4.358,5.155-5.235,9.448c-0.867,1.72-3.48,4.295-5.229,6.016c0,1.72-0.873,3.435-0.873,5.157
						c1.746,0.856,1.746,1.717,3.488,4.296c1.746,0.857,2.613,1.716,4.361,3.435c1.739-0.859,2.614-0.859,4.354-0.859
						c0-0.858,0.873-2.574,1.744-3.438c0,0.862,1.746,2.578,1.746,5.153c-1.746,0-3.49,0.864-5.229,1.722
						c0,0.855-0.875,3.435,1.738,5.153c-0.865,2.581-3.479,5.155-6.102,6.878c-0.867,0-0.867,0-1.736,0
						c-1.744-1.723-4.364-2.582-6.104-4.297c-0.873,0-1.748,0-2.621,0c-0.873,0.854-1.737,2.574-1.737,3.434
						c0,0.863,0,2.576,0,3.438c1.737,1.718,6.099,3.433,8.719,7.731c0,1.72,0,3.439,0,5.157c1.744,2.575,3.48,6.016,4.357,9.451
						c0,0.857,0.871,1.717,1.746,1.717c0,0,0.864,0,1.739,0c0.873-0.858,1.738-2.576,1.738-3.436
						c1.744-1.718,2.619-2.576,4.365-3.438c0.871,1.721,2.611,4.297,4.354,8.592c0.871,2.578,0.871,6.014,5.23,7.733
						c0,0.855,0.875,0.855,0.875,1.719c-0.875,1.715-0.875,5.154-0.875,7.729c0,0.86-0.873,1.724-1.742,1.724
						c-2.617,0-2.617-0.862-3.488-1.724c-7.848,0-8.721,0.86-11.334,6.878c-0.864,0-0.864,0-1.739,0.857
						c0,1.718-6.978,6.013-7.851,6.874c-0.866,1.714-5.231,4.293-6.971,5.155c-0.875,0.858-1.744,1.715-1.744,1.715
						c-0.871,0-1.737,0.856-2.612,0.856c-0.869-0.856-1.746-1.713-2.613-2.571c-1.748-5.155-2.617-5.155-6.101-5.155
						c-1.747,3.436-2.618,8.588,1.734,12.024c0,1.718,0,3.437,0,6.015c-5.222,0-9.584,0.862-12.195-0.859
						c-0.875-5.154-2.618-6.014-4.36-8.592c-0.873-2.573-2.617-5.152-3.48-8.588c-3.49-2.583-2.619-1.722-5.234-1.722
						c-2.617,1.722-5.229,3.436-7.846,5.156c-0.869,1.721-0.869,5.152,0,8.59c-2.617,0.862-6.104,0.862-8.715,0.862
						c-3.488,1.716-6.104,3.432-8.721,5.151c-0.871,1.723-0.871,3.439-2.609,3.439c-2.619-1.718-3.492-2.577-3.492-3.439
						c0.873-0.859,0.873-0.859,1.74-1.721c0-4.294-3.482-6.87-6.104-6.87c-4.354,1.718-4.354,4.294-3.479,9.453
						c-0.875,0-1.748,0-2.619,0.859c-0.869,0-0.869,0.855-0.869,1.718c-0.875,0-0.875,0-1.743,0.858c0,2.576,0,5.153,0,7.733
						c0.868,0.858,1.743,2.569,2.612,3.432c0,0.864,0,1.721,0.871,2.581c-0.871,0.86-1.74,1.723-1.74,2.574
						c-4.364,3.44-8.723,4.298-13.073,3.44c-3.492,0-4.357,1.717-6.104,2.575c-0.877,0.861-1.738,1.719-2.61,2.579
						c-1.746,3.437-5.232,7.732-8.722,11.166c-1.744-0.858-2.621-1.717-3.483-2.575c-1.744,0-3.486,0-4.359,0
						c0,1.717-0.873,3.438-1.744,3.438c-1.74-2.578-3.486-1.721-5.229-1.721c-0.869,1.721-1.742,4.296-3.484,5.157
						c-4.357,1.715-6.105,8.591-10.461,11.17c-1.752,2.578-0.873,4.296-0.873,7.731c0,1.717-0.879,5.154-0.879,6.873
						c-0.863,0-0.863,0-0.863,0c-6.105,0-11.334-0.859-15.691-1.719c-1.746-0.859-3.489-1.719-4.358-2.574
						c-0.879-0.863-1.743-1.723-2.618-2.58c-1.748,0-3.482-0.862-5.225-0.862c0-1.715,0-3.436,0-4.291
						c1.742-3.438,4.354-6.874,4.354-11.171c-0.878-4.299-4.354-3.438-6.099-3.438c-0.877,0.861-1.748,0.861-2.622,1.716
						c-5.228,0-2.612,0-3.483,5.155c-1.744,0.864-1.744,1.724-1.744,2.581c-0.873,1.719-1.74,3.434-2.611,5.157
						c0,1.718,0,4.291,0,6.012c-0.877,0.858-1.742,1.723-1.742,2.578c-4.358,0-4.358,0.858-6.106,2.577
						c-3.485,0-6.103,0.859-8.718,1.717C89.018,86.777,88.143,88.497,86.401,89.354L86.401,89.354z"/>
					<path fill="none" stroke="#8ABCC7" stroke-miterlimit="10" d="M383.646-42.096c-1.75-1.721-3.494-3.439-6.104-6.016
						c-1.748-4.298-3.492-6.873-7.85-6.013c-0.875,1.715-1.738,3.43-2.609,6.013c-2.619,0-5.229-6.013-5.229-6.873
						c-0.879,0-1.747-0.856-1.747-1.72c-0.873,0-1.746,0-3.484-0.864c-2.617-4.293-4.363-4.293-7.848-4.293c0,0,0,0.86-0.873,0.86
						c-6.103,3.433-4.357-2.573-4.357-6.017c-1.744-1.718-2.619-1.718-4.356-1.718c-0.875,0.863-1.744,2.578-2.619,3.438
						c-0.867,0-0.867,0-1.738,0.858c-1.744,2.576-7.85,3.438-10.459,4.299c-5.238-2.581-6.977-4.299-7.848-8.596
						c-3.484-4.294-2.619-2.576-6.103-3.438c-0.875,0-0.875,0-0.875,0.86c-1.744-0.86-1.744-2.575-1.744-3.438
						c0.873-0.855,2.619,0,5.236-1.713c0-2.581-0.871-4.298-0.871-5.155c-0.875-0.862-0.875-1.727-1.746-1.727
						c-3.483,0-2.619,0-4.356,3.441c-2.615,0-4.363-2.578-6.101-3.441c-0.877-1.713-0.877-1.713-1.744-3.433
						c-0.874-0.86-0.874-2.575-0.874-3.437c3.487-1.72,4.354-4.299,6.104-6.874c0.875-5.153,4.354-6.875,6.098-11.169
						c0-0.859,0-1.718,0-2.576c1.746,0,1.746,0.858,1.746,1.717c0,1.719-0.871,4.299,2.611,6.012c0.875,0,3.49,0.863,5.229-0.857
						c0-3.436,0-8.589,0-10.31c-4.354-4.296-2.608-6.011-0.867-9.449c0-3.436-1.741-7.729-3.485-7.729c0-0.866,0-2.579,0-3.438
						c0.871-1.722,0.871-2.58,1.744-4.299c0-2.578,0.871-4.296,1.741-6.875c0-6.014-2.614-14.604-6.973-16.317
						c-3.49,0-5.229,0-7.844,1.714c-1.748,4.294-1.748,5.154-6.104,6.013c-4.357,0-6.979,0.861-9.593,1.718
						c-3.481-1.718-2.606-4.291-3.481-6.016c-0.869-4.292-1.746-6.01-3.486-7.729c-7.846-3.437-8.713-2.576-8.713,4.302
						c-2.621-1.723-4.363-3.445-6.105-5.161c0,0,0,0,0-0.857c0.871-0.859,1.742-1.719,2.611-2.576c0-1.723,0-4.295,0.873-5.155
						c-0.873-0.86-1.742-1.719-2.613-2.579c3.486-1.719,6.102-3.438,9.588-4.297c3.484-1.718,5.232-2.576,10.459-1.718
						c1.744,1.718,4.355,2.577,8.715,2.577c4.365-0.858,6.103-0.858,11.339,0.861c3.483,4.295,7.842,10.311,13.073,16.324
						c0.869,1.718,1.742,4.295,2.617,6.872c2.609,1.718,4.353,3.437,6.098,5.153c2.613,2.577,3.484,3.441,3.484,7.735
						c0.875,0.86,2.619,2.576,5.232,4.296c0,0,0,0.858,0.869,0.858c0,1.715,0,2.578,0.875,6.017c0.868,0.857,6.098,0.857,9.588,0
						c1.741,0,2.61-0.858,6.104,1.713c0.873,0,2.609,0,3.482,0c0.873-0.854,0.873-0.854,3.494-0.854
						c2.608,1.722,4.354,3.435,6.1,5.152c1.738,0,5.225-0.856,6.971,1.723c0.869,1.717,1.742,3.432,2.617,5.155
						c0.871,3.438,4.354,12.885,11.326,8.591c2.613,0,6.104-1.722,9.594-2.576c0.867-0.861,0.867-0.861,1.74-1.726
						c3.49-5.149,5.229-6.869,9.59-10.305c0.871-0.862,2.613-2.581,3.484-3.437c2.614-2.579,4.362-4.296,6.973-6.018
						c3.488,0,4.361,0,2.617,4.293c0,2.579,0,4.298,0,6.878c1.744,0.858,4.354,2.573,5.229,6.01
						c-0.873,1.727-0.873,3.44-0.873,6.019c-0.868,0.86-0.868,2.578-1.741,3.438c-1.742,1.718-0.869,5.156,0,8.594
						c-0.869,3.436-0.869,6.013-0.869,9.447c0,1.72-0.873,4.295-0.873,6.019c0,1.717,0,4.296,0,6.012
						c-0.871,0.858-1.748,1.719-2.613,2.575c-1.746,0-2.621,0-3.484,0c-4.362-0.856-5.233-0.856-7.848-0.856
						c-1.742,0.856-1.742,2.578-2.613,3.435c-4.36,1.722-5.239,2.578-4.36,6.879c0.875,1.715,1.744,2.574,2.612,4.297
						c0,3.436,2.619,7.732,5.232,12.88c0,1.726,0.875,3.438,0.875,6.02c-5.236,0-7.846-4.294-9.6-5.153
						c0-3.439-3.478-4.295-4.355-3.439c0,0.859,0,0.859,0,1.72c-3.484,0-6.102,1.721-8.715,3.438c0,0.854,0,1.715,0,2.575
						c0,0,0,0,0.875,0c-1.744,0.86-2.619,1.72-3.488,2.581C385.389-42.955,384.516-42.096,383.646-42.096L383.646-42.096z"/>
					<path fill="none" stroke="#8ABCC7" stroke-miterlimit="10" d="M358.361,6.016c-1.738-2.578-6.103-5.155-7.845-6.014
						c0-0.857-0.87-0.857-0.87-1.722c0-3.436,0.87-5.155-0.871-7.732c-2.617-2.576-2.617-2.576-3.49-4.294
						c-0.867-1.714-2.615-2.573-3.484-4.297h-0.875c0-1.718,0-4.294,0-6.016c-1.738-1.715-2.613-1.715-3.481-1.715
						c-1.742,1.715-1.742,2.574-2.613,5.154c0-0.863-0.871-0.863-0.871-0.863c-2.619-1.717-5.232-5.153-6.979-6.01
						c-7.849-0.862-7.849-3.438-8.716-8.593c-1.741-3.437-3.485-6.013-4.36-7.732c0-0.858-0.865-0.858-0.865-1.72h-0.871
						c-1.746,0.859-3.492,2.581-4.365,3.439c-0.864,0.854-1.737,2.576-2.612,4.294c-3.488-2.576-2.611-6.015-3.488-7.733
						c-0.867-0.86-1.736-2.575-1.736-3.435c0-1.725,0-3.438,0-5.153c-2.619-3.444-5.232-5.159-6.977-6.877
						c-3.486,0-0.875-4.296-0.875-5.155h0.875c2.611,1.719,5.231,4.295,9.59,4.295c1.746-1.713,3.486-4.295,5.225-5.155
						c2.619-3.436,4.365-5.154,6.978-0.854c0.871,4.297,5.231,7.731,10.459,9.451c2.61-0.863,6.102-1.72,8.721-2.581
						c1.742-2.573,4.354-4.296,6.967-6.017c0,0,0,0,0.875,0.86c0,2.582-1.743,7.736,4.357,7.736c0.875,0,1.744-0.863,2.617-0.863
						c2.61-2.578,4.358,0.863,6.977,3.44c0.871,0,2.609,0,3.482,0.857c0.873,1.716,3.481,6.015,6.975,8.588c0,0,0.875,0,1.746,0
						c1.738-2.573,2.611-4.298,2.611-6.872c0.873,0,1.739,0.859,2.612,0.859c0.871,2.58,2.615,5.152,6.105,7.732l0,0
						c0.867,1.722,2.611,2.58,3.486,3.435c1.743,0,3.483,0,4.354,0c0.875-0.854,1.744-1.713,2.619-2.574l1.738-0.859
						c0-0.859,0-0.859,0-1.721c-0.873,0-0.873,0-0.873,0c0-1.715,3.489-2.573,5.231-3.433c0.877,0,1.742-0.865,1.742-0.865
						c0.879,0,0.879-0.855,0.879-0.855c1.74,0,0.867,2.58,4.355,4.294c1.744,0.859,3.483,2.58,5.231,3.439
						c1.742,0,3.488,0.861,4.355,0.861c0,1.713,0.871,6.012-0.867,7.729c-0.875,0.858-0.875,2.578-1.746,3.437
						c0,1.72-0.877,3.436-0.877,5.153c-0.865,0-0.865,0-1.736,0c0-2.576-3.485-0.855-3.485-0.855h-0.875c0-2.578,0-4.298,0-6.018
						c-2.615-4.294-5.234-2.575-6.978,0.861c-0.869,3.436-3.483,6.874-4.358,10.311c-0.873,0.854-0.873,1.719-1.738,2.576
						c-6.098,4.301-9.592-1.722-8.717,7.731c0.869,0.863,2.619,2.576,3.487,3.438c0,0.854-1.743,2.573-1.743,2.573
						c-3.486,0.861-9.593,0-11.332,0c-3.484-3.437-5.23-1.719-6.976,0.861c-1.748,2.578-2.608,6.015-3.488,8.592
						c-0.868,0.856-0.868,1.718-0.868,1.718C359.234,5.155,359.234,5.155,358.361,6.016L358.361,6.016z"/>
					<path fill="none" stroke="#8ABCC7" stroke-miterlimit="10" d="M237.203,106.543c-0.879-0.863-1.742-1.726-1.742-2.58
						c-3.488,0-6.979,0-10.465,0.854c-3.484-0.854-6.971-1.711-9.586-2.575c-2.613-1.717-4.361-4.299-4.361-4.299
						c1.748-2.57,3.492-4.292,5.227-6.008c0.879-1.719,0.879-3.438,1.75-5.159c1.742-9.451-3.483-12.888-7.848-17.183
						c0-6.016,3.492-7.731,7.848-10.309c0.871-1.723,1.742-2.579,2.613-3.438c0-1.721,0-3.437,0-4.295
						c-2.613-4.297-5.229-6.878-7.842-9.45h-0.875l0,0c0.875-0.86,1.748-1.721,2.619-2.58c0.869-0.856,1.734-2.576,1.734-3.435
						c-1.734-0.863-2.605-1.716-3.479-2.577c0-1.722,0-2.577,0-3.441c-1.748-1.715-2.618-2.572-3.487-3.432c0-2.58,0-4.295,0-6.875
						c0.869-0.858,0.869-1.718,1.739-2.579c0,0,2.621,0,2.621-0.855c0-2.582,0-4.301,0-6.874c1.74-0.862,1.74-1.722,3.483-1.722
						c0.871,0.858,3.484,1.722,3.484,4.295c-3.484,2.578-0.871,5.156,2.615,7.735c0.877,0,0.877,0,1.742,0
						c0.873,0,0.873-0.858,1.744-0.858c0-3.437,3.488-3.437,6.1-5.158c2.621-4.292,8.719-1.719,13.076-4.292
						c-0.869-2.58-0.869-5.16-0.869-7.731c1.744-1.721,2.611-2.578,6.096-4.299c3.494-3.439,4.357,0,6.113,4.299
						c1.734,3.433,3.48,6.011,5.223,9.447c0.875,2.576,0,3.437,4.359,5.158c1.74,0,5.234,0,8.721,0
						c-0.877,1.718-3.485,1.718-4.363,4.295c0,1.721-0.87,3.436,3.486,6.016c2.611,0,6.104,3.432,9.59,6.013
						c0.875,0,1.742,0.86,2.613,1.723c-2.613,2.573-4.359,6.01-6.975,9.447c0,2.58-5.229,6.012-7.838,6.871
						c-1.748,0-3.494,0-5.234,0.861c-3.484-2.577-5.23-5.152-6.975-6.878c-0.873-2.572,0-6.01-0.873-7.729
						c-1.734-0.857-3.49-0.857-5.225-1.722c0-3.436,0.87-7.729,0.87-10.307c-3.493,0-6.979,0-7.846-2.575
						c-5.231,0-5.231,0-6.104,4.295c-2.613,1.717-4.361,3.432-6.104,4.296c0,1.717,0,2.577,0.879,5.154
						c0,4.294-4.36,3.435-6.104,5.152c0,1.719-0.875,5.159,0,6.878c3.482,0,6.104,0,9.59,0c1.738-1.719,2.611-3.443,6.97-2.581
						c0.875,0.862,1.741,0.862,2.61,2.581c0.877,0.856,0.877,1.713,1.748,2.572c0,1.721,0.867,4.295,0.867,6.016
						c1.746,2.579,4.357,5.155,8.721,6.872c1.744,1.716,2.615,2.581,3.49,4.297c-2.617,0-3.49,2.579-5.233,3.434
						c-0.863,3.441-6.099,6.017-8.716,6.878c-2.612,1.717-4.356,4.295-6.098,6.873c-6.982,6.876-11.334,8.592-6.982,19.758
						C236.324,104.818,237.203,105.68,237.203,106.543L237.203,106.543z"/>
					<path fill="none" stroke="#8ABCC7" stroke-miterlimit="10" d="M174.436,132.315c-4.354-2.578-3.479-6.015-3.479-8.594
						c0.873-1.716,0.873-2.572,1.739-4.295c-0.866-1.717-0.866-3.437-0.866-5.154c-0.873-1.72-1.746-4.297-2.617-6.013
						c0-3.441,0-6.878,0-10.315c2.617-3.432,3.483-6.008,4.358-8.591c0-0.855,0-2.576,0.865-3.437
						c-1.74-6.872-4.354-12.027,1.742-15.462c0.877-4.295,0.877-6.013,0.877-8.593c0.877-0.862,0.877-1.724,1.744-3.438
						c0.867-4.296,3.488-6.012,6.975-7.731c1.746-2.572,3.48-6.871,6.104-7.731c0.865-0.856,1.74-1.718,2.611-2.577
						c1.745,0,7.846,0.859,9.588-0.859c1.743-0.856,4.356-1.717,6.103-3.435c0.87-0.863,0.87-0.863,1.743-1.716
						c0.875,0.853,1.748,1.716,2.619,1.716c0,2.577-6.106,3.435-4.362,6.871c3.491,0.86,5.231,4.297,8.719,9.452
						c0,0.857,0,1.716,0,2.574c-2.621,4.3-3.486,3.438-6.976,6.014c-1.743,2.579-5.229,6.876-2.612,10.31
						c0.869,0.866,2.612,1.726,3.487,2.58c1.744,2.58,4.356,4.298,4.356,10.313c-0.879,1.716-0.879,3.437-1.743,5.151
						c-0.869,2.583-4.361,6.021-6.103,7.732c0,0.857,0,0.857,0,1.721c0.869,0.858,2.613,2.575,3.488,3.437
						c0.873,2.575,0.873,6.877,0,10.311c-2.619,2.578-5.232,6.019-8.721,8.597c-3.49,0-6.975,0.856-10.459,1.716
						c-4.363,3.437-6.973,3.437-10.461,4.294c-1.746,0.86-2.613,1.716-4.357,2.578C177.055,131.451,175.314,132.315,174.436,132.315
						L174.436,132.315z"/>
					<path opacity="0.37" fill="none" stroke="#8ABCC7" stroke-miterlimit="10" enable-background="new    " d="M159.623,181.291
						c-5.23-1.725-6.104-4.295-9.586-6.876c-0.873,0-1.752-0.858-3.488-0.858c-3.492,0-7.846,0-10.461,1.715
						c-1.743,0-4.356-2.573-4.356-3.435c-5.237,0-6.102-2.575-7.847-3.438c-1.745,0-3.488,0-6.099,0
						c-1.748-0.858-4.362-1.719-6.105-1.719c0-2.575,0.871-2.575,0.871-4.295c0-3.438,0-4.296-1.742-4.296
						c-0.873-1.718-0.873-2.579-0.873-3.437c2.615,0,5.228,0,8.719,0c1.741-3.438,0.875-6.877,0.875-10.312
						c-0.875-1.72-1.744-2.579-1.744-4.296c-1.748-9.454-1.748-10.311,7.844-10.311c1.743,0.855,4.355,1.714,6.102,3.439
						c0.871,0,2.613,0,3.486-0.861c0-2.578,0-4.296,0-6.015s4.357-2.579,6.1-0.86c0.871,0,2.617,0,3.488,0
						c1.743-3.435,1.743-9.449,0.873-12.024c0-2.581,0.87-2.581,1.743-4.296c0-0.859,0-1.717,0-2.576
						c-0.873-0.863-1.743-0.863-2.616-0.863c-2.617-1.717-6.103-3.438-6.974-5.153c-3.488,0-7.847-1.72-9.59-2.582
						c0-2.57,0.872-2.57,1.743-3.432c-0.871-2.576-0.871-4.295-0.871-5.159c0.871,0,1.745-2.576,2.617-3.437
						c0.871,0,2.613-0.856,5.229,0.859c3.482,0,6.975,0,11.326,0c3.492-3.436,1.752-9.452,1.752-12.025
						c0-3.441,2.609-3.441,4.355-6.016c0.871-1.718,2.61-4.293,4.356-6.013c0.873-0.86,2.617-2.584,4.362-3.438
						c0.869-0.862,1.736-2.579,2.611-3.438c0.869,0.858,1.746,0.858,2.615,1.716c0.871,0,0.871,0,0.871,0
						c1.744-0.856,2.617-2.577,3.484-3.437c0.875,0,4.359,0,4.359,4.296c0,0.862-0.878,1.716-1.74,2.576
						c0,4.295,0,7.735-3.486,11.176c-1.746,4.294,0,9.447,0.867,14.602c0,3.44-2.613,7.735-4.355,10.31c0,3.439,0,7.731,0,12.033
						c0.871,1.715,2.615,6.012,2.615,9.451c-1.744,4.293-2.615,7.729-0.873,12.021c0.873,1.723,1.746,1.723,2.613,4.299
						c0,1.715,0,3.434,0,5.155c0.875,2.576,2.619,5.155,3.482,8.592c1.754,2.578,4.364,5.156,5.231,10.31
						c-1.744-0.857-2.611-0.857-4.354-0.857c-3.484,0-13.941-0.859-15.688,0.857c0,0,0,0.858,0,1.719
						c1.745,0.854,3.481,2.577,6.104,4.296c0,0.857,0,1.719,0,2.578c-3.488,0.858-4.357,2.584-6.974,5.157c0,2.573,0,5.154,0,8.594
						C160.498,181.291,160.498,181.291,159.623,181.291L159.623,181.291z"/>
					<path fill="none" stroke="#8ABCC7" stroke-miterlimit="10" d="M159.623,181.291c-5.23-1.725-6.104-4.295-9.586-6.876
						c-0.873,0-1.752-0.858-3.488-0.858c-3.492,0-7.846,0-10.461,1.715c-1.743,0-4.356-2.573-4.356-3.435
						c-5.237,0-6.102-2.575-7.847-3.438c-1.745,0-3.488,0-6.099,0c-1.748-0.858-4.362-1.719-6.105-1.719
						c0-2.575,0.871-2.575,0.871-4.295c0-3.438,0-4.296-1.742-4.296c-0.873-1.718-0.873-2.579-0.873-3.437c2.615,0,5.228,0,8.719,0
						c1.741-3.438,0.875-6.877,0.875-10.312c-0.875-1.72-1.744-2.579-1.744-4.296c-1.748-9.454-1.748-10.311,7.844-10.311
						c1.743,0.855,4.355,1.714,6.102,3.439c0.871,0,2.613,0,3.486-0.861c0-2.578,0-4.296,0-6.015s4.357-2.579,6.1-0.86
						c0.871,0,2.617,0,3.488,0c1.743-3.435,1.743-9.449,0.873-12.024c0-2.581,0.87-2.581,1.743-4.296c0-0.859,0-1.717,0-2.576
						c-0.873-0.863-1.743-0.863-2.616-0.863c-2.617-1.717-6.103-3.438-6.974-5.153c-3.488,0-7.847-1.72-9.59-2.582
						c0-2.57,0.872-2.57,1.743-3.432c-0.871-2.576-0.871-4.295-0.871-5.159c0.871,0,1.745-2.576,2.617-3.437
						c0.871,0,2.613-0.856,5.229,0.859c3.482,0,6.975,0,11.326,0c3.492-3.436,1.752-9.452,1.752-12.025
						c0-3.441,2.609-3.441,4.355-6.016c0.871-1.718,2.61-4.293,4.356-6.013c0.873-0.86,2.617-2.584,4.362-3.438
						c0.869-0.862,1.736-2.579,2.611-3.438c0.869,0.858,1.746,0.858,2.615,1.716c0.871,0,0.871,0,0.871,0
						c1.744-0.856,2.617-2.577,3.484-3.437c0.875,0,4.359,0,4.359,4.296c0,0.862-0.878,1.716-1.74,2.576
						c0,4.295,0,7.735-3.486,11.176c-1.746,4.294,0,9.447,0.867,14.602c0,3.44-2.613,7.735-4.355,10.31c0,3.439,0,7.731,0,12.033
						c0.871,1.715,2.615,6.012,2.615,9.451c-1.744,4.293-2.615,7.729-0.873,12.021c0.873,1.723,1.746,1.723,2.613,4.299
						c0,1.715,0,3.434,0,5.155c0.875,2.576,2.619,5.155,3.482,8.592c1.754,2.578,4.364,5.156,5.231,10.31
						c-1.744-0.857-2.611-0.857-4.354-0.857c-3.484,0-13.941-0.859-15.688,0.857c0,0,0,0.858,0,1.719
						c1.745,0.854,3.481,2.577,6.104,4.296c0,0.857,0,1.719,0,2.578c-3.488,0.858-4.357,2.584-6.974,5.157c0,2.573,0,5.154,0,8.594
						C160.498,181.291,160.498,181.291,159.623,181.291L159.623,181.291z"/>
					<path fill="none" stroke="#8ABCC7" stroke-miterlimit="10" d="M105.583,116.852c-0.875-1.721-0.875-3.437-1.749-4.299
						c0-5.149-0.865-9.445-1.74-12.888c-2.617-4.292-6.972-6.869-8.72-9.447c-0.87-0.864-2.615-0.864-3.484-1.721
						c0.869-1.721,6.975-2.58,9.587-2.58c2.617-2.575,1.748-2.575,6.972-3.436c0.877-0.858,1.748-1.715,2.615-2.578
						c-0.867-2.578-0.867-4.294-0.867-6.015c1.74-2.58,3.484-5.153,4.355-7.729c0.872-1.718,0.872-3.438,0.872-4.298
						c2.614,0,5.231-3.438,8.716-0.862c0,0.862,0,1.724,0.867,2.579c-0.867,1.716-1.734,2.581-2.61,5.156
						c-2.61,3.439-2.61,4.299-2.61,10.31c2.61,0,4.354,0,6.099,0.858c0.87,0.863,2.609,3.438,6.101,4.298
						c0,1.716-0.871,2.575-2.612,4.296c-0.879,1.721-2.618,2.572-4.366,4.299c-6.098,0-2.61,0.855-4.352,6.011
						c-2.617,3.437-2.617,2.575-2.617,8.597c0.871,0.856,0.871,1.717,1.748,1.717c1.744,0.855,5.221,1.715,4.354,5.152
						c0,0.858-0.867,1.72-0.867,2.579c-1.742,0-3.486,0.858-4.363,1.72C110.809,122.864,112.551,122.864,105.583,116.852
						L105.583,116.852z"/>
					<path fill="none" stroke="#8ABCC7" stroke-miterlimit="10" d="M55.895,280.093c-0.875,0-0.875,0-1.743,0
						c-3.486-2.581-5.232-2.581-7.847-5.149c-0.874-0.866-1.745-0.866-1.745-1.723c0-0.858,0-1.718,0-2.579
						c3.487-4.293,1.745-6.872-0.87-10.31c-3.488-3.437-4.361-7.736-6.103-9.451c-2.615-5.154-1.746-3.436-6.103-4.297
						c-0.871,0-1.74-0.857-2.61-0.857c-0.876-1.719-2.617-3.439-3.488-5.155c-0.868-2.577-1.743-5.15-2.62-6.873
						c-0.871-1.719-1.741-2.576-1.741-3.431c-6.97,0-3.484,6.006-5.229,9.44c-0.869,0-0.869,0-1.741,0
						c0-3.436-1.743-6.87-2.614-9.44c1.741-0.867,1.741-4.305,1.741-4.305c0-1.716,0-3.436,0.873-5.154
						c-2.614-3.435-2.614-7.735-2.614-10.307c0.872-1.724,2.614-2.579,3.486-3.438c-0.872-2.577-0.872-4.298-0.872-6.872
						c-0.873-1.72-1.743-3.44-2.614-4.293c-0.876-3.439-2.62-7.738-3.489-9.456c-3.491-4.296-7.85-8.59-7.85-12.886
						c-1.737-0.857-3.485-1.72-5.229-3.433c-0.869,0-0.869-0.862-0.869-0.862c-0.871,0-0.871,0-0.871,0c0-2.581-0.875-5.156,0-6.018
						c3.483-1.724,3.483-5.154,3.483-7.733c-0.871-1.716-2.612-3.438-3.483-4.294c0-1.72,0-2.578,0-3.439
						c3.483,0,6.968-0.857,10.456-0.857c1.745,0.857,4.362,3.438,5.231,6.016c0,4.296,4.361,8.587,8.72,12.886
						c0.867,0,2.618-0.857,4.354,2.579c1.748,0,2.623-0.858,5.239-1.719c0-0.86,0.864-0.86,0.864-0.86c0,0.86,0.876,0.86,0.876,0.86
						c0,1.719,2.61,2.581,5.232,2.581c0,0,0.865,0.862,0.865,1.716c0.87,0,1.739,0,3.49,0c0-0.854,0.867-1.716,2.612-2.578
						c1.75,0,4.357-0.858,6.103-0.858c0.87-0.859,0.87-1.721,0.87-1.721c0-5.153-3.487-11.166-0.87-12.886
						c0.87,0.86,1.743,2.576,4.363,3.438c0.869,0.857,0.869,0.857,1.735,1.718c1.746,0.858,4.363,0.858,7.848,0
						c0.877-0.859,0.877-1.718,1.745-2.579c0-4.294-0.867-6.014-1.745-7.733c1.745-1.712,5.229-6.014,7.847-3.435
						c0.871,1.723,1.744,3.435,6.102,6.014c0.866,0.86,1.741,0.86,3.486,1.718c1.74,2.581,5.23,4.299,7.844,8.593
						c0,0.854,0.871,1.72,0.871,2.578c0.871,1.718,3.486,6.018,6.102,6.88c3.49,0,6.975,0,10.46,0
						c2.614-1.726,3.491-2.584,6.976-2.584c2.614,0.858,4.354,1.722,6.977,2.584c1.744,0,3.486,0,6.099,0
						c1.745,1.713,2.609,3.433,6.975,3.433c0.872,0.858,2.611,1.715,3.485,2.575c0,2.581,0,5.159,0,7.733
						c-3.485,2.576-5.23,6.867-6.103,11.169c-1.748,2.575-4.357,6.017-7.846,8.593c-6.098,1.718-6.098-0.861-9.587-3.437
						c-1.746-2.581-5.227-3.44-6.102-2.581c0,0-0.874,0-0.874,0.861c0,1.72,0,3.438,0,5.155c0.874,2.578,1.749,5.152,1.749,8.59
						c-0.875,2.581-1.749,6.019-0.875,9.449c0.875,0.862,1.74,1.719,2.617,2.581c1.738,0.859,5.227,6.021,1.738,10.309
						c-3.48,1.718-3.48,0.864-3.48,5.152c1.742,3.441,6.969,2.578,10.455,6.876c0,0.862,0,4.297-0.874,6.012
						c-4.354,0-8.716-0.854-11.33-1.715c0-2.576-0.865-5.154-1.74-6.873c-3.491,0-4.36,2.576-6.972,3.438c-0.877,0-2.618,0-3.494,0
						c-4.355-3.438-5.227-7.738-5.227-10.317c-0.874-0.855-1.74-1.709-1.74-2.573c-6.104,0-7.849-0.857-8.724,5.152
						c-1.743,1.728-2.609,0.863-4.354,1.728c0,0.852,0,1.715,0,2.572c1.745,1.719,4.354,4.297,2.611,8.588
						c-0.866,2.579-5.225,4.301-7.842,6.014c0,0,0,0.865-0.867,0.865c0,1.719,0,3.438,0,6.019c1.74,2.57,4.355,0.855,4.355,6.87
						c-0.871,0.857-0.871,1.714-0.871,2.58c-1.744,0.855-2.617,0.855-3.484,1.713C62,277.512,58.504,279.234,55.895,280.093
						L55.895,280.093z"/>
					<path fill="none" stroke="#8ABCC7" stroke-miterlimit="10" d="M45.431,360.855c-2.607-2.579-5.229-4.299-6.97-5.151
						c0-3.44,0-5.16-0.875-7.734c-0.876,0-0.876-0.863-1.746-0.863c-3.483,0-6.098,1.724-7.843,4.296
						c-0.864,0-2.612-0.857-4.355-0.857c-0.877-2.574-1.748-4.294-3.484-5.152c-3.494-5.152-3.494-3.437-8.718-4.294
						c-2.62-2.576-1.749-6.016-1.749-7.733c0.872-3.435,1.749-6.015,0-8.592c-6.103-1.721-5.231-0.86-5.231-4.294
						c-0.872-1.718-1.741-3.438-1.741-5.154c-0.874-0.863-0.874-1.724-1.74-2.578c-0.877-5.16-1.746-6.019-6.106-6.019
						c-2.615,1.717-6.098,3.438-7.843,3.438c0,0,0,0-0.872,0c0-4.294,0-8.595,0-12.886c0.872-1.721,1.745-3.438,2.617-5.156
						c2.614-4.293,5.229-5.151,9.589-8.595c0.869-0.854,2.615-1.713,3.481-3.435c0-1.723,0-4.294,0.874-6.017
						c0-0.855,0.87-1.715,0.87-2.573c0-3.439,0-8.59,1.745-10.311c0-3.438,0.875-6.019-0.874-8.598
						c-1.741-1.715-4.359-3.432-6.096-5.149c0-1.72,0-2.575,0-4.296c1.737,0,3.481-0.863,6.096-1.715
						c1.748-4.307-0.872-9.456-0.872-12.035c1.745-1.715,2.62-3.438,5.231-0.86c1.744,3.439,3.492,6.881,4.361,12.031
						c0.873,0.864,0.873,0.864,3.483,0.864c1.743-2.581,0.876-6.016,0.876-7.738c0.867-0.858,1.739-0.858,2.618-1.718
						c0.866,1.718,1.736,4.294,2.607,7.729c1.751,1.728,2.62,5.162,6.108,7.737c1.739,0,3.484,0.858,5.232,0.858
						c1.735,3.436,3.48,6.87,5.222,10.305c1.745,1.724,3.496,4.305,5.231,6.02c0,0.864,0,1.721,0.872,2.578
						c-2.607,2.577-2.607,1.716-2.607,6.015c1.735,2.578,2.607,4.291,7.842,6.014c0.874,0.858,0.874,1.716,4.354,2.58
						c0.875,0,2.617,0,3.484-0.864c3.496-0.856,6.98-2.579,11.336-4.295c1.742-3.435,1.742-5.151,1.742-7.732
						c-1.742-2.573-3.486-3.43-4.357-4.294c0-3.436-0.873-3.436,0.871-5.153c2.617-1.721,6.098-3.436,7.841-6.879
						c0-1.715,0-2.575,0-3.432c-0.866-3.438-1.743-4.294-2.609-5.156c0-0.857,0-0.857,0-0.857c0.866-0.863,1.743-0.863,1.743-0.863
						c5.227-4.293,0-6.866,8.717-6.014c0.873,2.581,2.613,6.014,3.484,8.598c0.871,1.714,1.746,2.576,3.486,4.294
						c1.745,0,3.486,0,5.232,0c1.742-1.718,3.485-2.58,5.233-3.438c0,0,0,0.857,0.869,0.857c0,2.58,0,7.735-2.617,9.455
						c-1.743,0.856-2.612,0.856-3.485,0.856c-1.746-0.856-3.487-1.722-5.232-2.576c-6.098,0-6.971,0.854-11.33,4.289
						c-0.871,0.865-0.871,1.724-1.743,2.584c0,1.721-0.873,3.436,0.872,6.014c0,1.716,1.74,6.015,6.104,3.436
						c3.482,0,6.098-1.72,6.098,4.302c-0.869,1.713-1.74,4.291-2.615,6.871c-3.482,4.289-1.742,6.865,4.36,9.446
						c0,0.86,0,2.579,0,3.44c0,1.717-2.614,6.013,0,9.445c0.87,1.723,2.618,3.438,4.36,5.158c2.612,0.857,6.104,1.716,9.584,2.58
						c0.877,0,1.748,0.858,3.488,1.714c0.873,0,2.615,0,3.487,0c0,1.725,0.875,2.584,0.875,3.439
						c-0.875,0.861-0.875,1.721-1.747,2.572c-1.742,1.723-3.488,2.577-5.227,2.577c-6.101,0-8.723,2.582-13.08,5.159
						c-0.871,1.719-1.741,3.438-3.486,5.154c-1.74,0-3.486,0-5.231,0c-1.739,0.859-4.351,5.156-6.97,4.298
						c-3.486-5.157-6.102-3.438-8.717-0.858c-4.355,0.858-5.233-1.72-6.973-2.579c-5.23-1.72-6.096,0.859-7.847,3.438
						c-1.746,1.72-5.229-0.858-6.101-0.858c-0.873,0-1.743,0-2.615,0c-2.615,2.578-2.615,1.718-2.615,6.013
						c1.741,2.576,3.487,4.295,1.741,8.589c0,1.72,1.746,4.301,1.746,8.595C46.305,359.997,45.431,360.855,45.431,360.855
						L45.431,360.855z"/>
					<path fill="none" stroke="#8ABCC7" stroke-miterlimit="10" d="M114.298,301.569c-4.362-1.716-5.235-3.436-6.974-5.15
						c-0.877,0-1.742-0.86-2.617-0.86c-5.231,0-6.105,0-9.586,2.576c0,0.863-0.877,1.72-1.748,2.58c0-2.58,0-3.437,0.871-5.156
						c0-1.718,0-3.437,0-6.01c-1.741-0.868-4.355-1.72-6.102-2.578c0-0.866,0.875-2.579,0.875-3.442
						c0.871-2.577,1.74-5.156,2.609-7.729c0.876-0.855,0-4.296,0-5.157c-0.869-0.857-1.738-1.72-1.738-1.72
						c-2.617,0-5.229,0-7.847,0.86c-2.614,0-1.745-2.576-1.745-3.435c-0.869-0.855-0.869-0.855-0.869-1.721
						c0-6.874,2.614-6.874,8.715-8.589c0.875,0,0.875,0,1.746,0c2.614,1.715,6.102,3.436,10.459,1.715
						c0.876-0.857,0.876-1.715,1.745-1.715c0-0.864,0.875-2.582,0.875-3.443c0,0,0.865,0,1.739,0
						c0.875,1.725,6.973,1.725,11.33,1.725c2.617-2.58,1.748-6.016,1.748-8.594c-3.487-3.439-6.977-4.291-9.59-5.155
						c-1.748-3.441-0.871-4.298,2.613-4.298c0.871,0.855,1.742,1.721,2.614,1.721c2.614,0.86,4.362,0.86,6.106,1.715
						c6.1,0,13.072-5.152,15.688-10.309c0-4.293,3.486-4.293,6.971-4.293c2.616,0.855,4.36,5.16,5.233,9.448
						c2.615,2.573,4.354,6.016,8.72,9.452c0.862,0,2.608,0.862,4.356,0.862c0,2.575,2.614,6.011,0,9.449
						c-5.234,3.435-8.722,0.854-7.853,8.594c0.873,0,2.617-0.866,3.494-0.866c2.609,0,4.357,0,6.1,0c0,2.581,0,6.017,0,9.456
						c0,1.718,0.873,2.572,3.484,4.296c0,0.855,0.869,1.713,1.746,3.436c-3.488,0-5.23,1.715-7.848,2.58
						c-2.619,4.289-6.977,6.015-10.459,8.588c-2.615,1.72-6.107,2.576-8.723,1.72c-1.738,0-2.609-0.86-4.354-1.72
						c-3.485-4.299-3.485-2.573-6.974-3.433c-0.872,0.858-1.741,0.858-1.741,1.71c0,0.868,0,1.723,0,2.581
						c-2.618,2.579-6.101,5.157-7.843,8.593C116.909,300.714,115.164,300.714,114.298,301.569L114.298,301.569z"/>
					<path fill="none" stroke="#8ABCC7" stroke-miterlimit="10" d="M159.623,354.844c0-0.861,0-1.717,0-2.581
						c-0.873,0-0.873-0.861-1.746-0.861s-0.873-0.857-1.736-0.857c-0.877-3.438-2.621-3.438-4.363-2.574
						c-0.87,1.719-0.87,2.574-0.87,3.433c-3.484,0.861-6.974,0.861-10.466,0.861c-1.737,0-3.481-0.861-6.096-0.861
						c-1.742-0.857-2.613-0.857-4.359-0.857c-1.743-1.715-2.612-2.574-4.355-4.294c0-0.858-0.875-1.718-1.745-2.578l0,0
						c-1.745-3.434,0-4.294,0.87-6.87c0-0.858,0-2.578,0-3.438c-0.87-0.86-2.615-1.721-3.482-2.576v-0.858
						c-5.234,0-8.721,0-12.209-0.861c-0.867,0-1.738-0.857-3.48-0.857c0-1.721-0.875-2.582-0.875-4.299c0.875,0,2.617,0,4.355,0
						c1.746,0,3.488-2.576,5.235-3.434c1.739-3.438,1.739-6.019,0-7.732c-0.875,0-2.618,0-3.489,0
						c-5.227-3.438-10.461-4.302-13.945-6.019c-1.742-1.715-2.619-3.431-2.619-4.295c2.619-4.298,2.619-5.153,8.724-5.153
						c1.739,0,2.614,0.855,4.356,0.855c0.871,1.72,2.611,2.58,4.355,4.298c1.743,0,3.483,0.864,6.975,0
						c3.484-2.578,6.975-7.729,10.459-10.311c0-0.86,0-1.72,0-3.441c0.871,0,1.745,0,3.488,0c0,0.868,0.868,0.868,0.868,1.723
						c1.747,0.858,4.362,2.576,7.846,4.3c0.871,0,1.74,0,2.617,0c1.744-0.861,3.487-1.724,6.104-2.58
						c2.609-2.573,4.355-3.441,7.84-5.151c0-0.866,0.873-0.866,1.746-1.722c2.617-3.435,4.359-4.299,8.717-5.155
						c1.742,0,3.488,0,6.096,0c4.363-2.581,5.23-5.148,11.338-5.148c0.871,1.712,1.746,3.427,3.48,5.148
						c0.877,0.856,1.744,1.722,2.623,2.581c-1.746,2.574-3.484,5.154-5.232,8.587c0,0.86,0,2.579,0,3.44
						c0.875,0.855,2.609,0.855,5.232,0.855c0,1.722,0.865,2.576,0.865,4.296c0.875,0.86,0.875,0.86,1.746,1.716
						c1.746,0,4.357-0.854,6.098-0.854c1.748,1.718,1.748,5.155,1.748,8.592c0,0.857-0.873,1.716-2.615,2.58
						c0,0.858-0.873,0.858-1.744,0.858c0,2.579,0,5.156-0.873,6.868c0,1.722-0.867,2.576-1.746,4.298
						c-0.866,0-2.612,0.86-2.612,2.578c-3.488,0-6.099,6.875-8.716,8.593c0,0.86-2.616,1.72-2.616,1.72
						c-1.744,1.72-3.479,3.438-4.354,4.296c0,0.857,0,0.857,0,0.857h-0.877v0.856c-1.742,0-3.482,2.579-4.351,3.438
						c-0.873,1.72-1.746,3.438-2.617,5.151c-3.485,0.861-5.229,1.727-6.971,3.442C160.498,354.844,160.498,354.844,159.623,354.844
						L159.623,354.844z"/>
					<path fill="none" stroke="#8ABCC7" stroke-miterlimit="10" d="M176.178,372.885c-3.482-2.581-3.482-4.294-4.35-6.017
						c-0.873-2.573-2.617-4.288-3.488-6.014c0-4.299,0-3.438,2.615-6.012c0.873-6.875,0.873-7.738,6.977-12.032
						c2.611-2.573,5.226-5.151,8.713-7.729c2.609-3.438,5.232-6.015,8.711-9.454c2.619-1.717,2.619-3.438,3.49-6.016
						c0-6.867,1.74-5.152,5.23-9.448c0-2.579,0-6.017,0-8.595c1.744-1.716,1.744-4.291,2.615-6.012c0-1.718,0.873-2.579,1.742-3.437
						c0.875,0,1.743,0,2.614,0c1.748,0.856,3.492,2.579,5.228,4.297c0.879,0,1.75,0,2.621,0c1.742-1.718,1.742-4.297,1.742-5.157
						c-0.871-0.858-2.613-2.581-3.484-3.433c0.871,0,0.871,0,0.871,0c5.229,0,9.588,0,13.947,0c1.739,0.852,6.975,0.852,9.586-1.726
						c0.875,0,0.875,0,1.748,0c0,1.726,0,2.576,0,3.444c-1.748,1.713-4.359,4.292-6.104,6.87c0,3.436,0.868,4.296,6.973,4.296
						c2.615-1.717,5.229-2.58,8.714-3.437c0.877,0,1.748,0,2.61,0c0,0,0.875,0.855,1.756,0.855c4.353,0,6.968-6.014,13.938-3.434
						c1.744,1.718,2.615,3.434,4.363,5.152c1.734,2.578,4.353,5.158,6.101,8.59c0,0.862,0,0.862,0,1.72
						c-2.617,0-2.617,0.858-4.365,1.724c-1.733,1.714-6.099,2.573-3.481,6.874c0,0,0,0,0,0.853
						c-4.359,1.723-9.588,5.159-13.947,7.736c0,0-0.873,0.86-1.744,1.719c-1.744,0-2.619-0.857-2.619-0.857
						c-0.863,0-1.734,0-2.611,0c-0.867,0-1.746,0.857-1.746,1.72c-0.867,0-1.737,0-1.737,0c-2.613-2.58-3.488-1.72-5.229-1.72
						c0,1.72,0,2.577,0,4.294c-1.742,1.72-3.49-0.859-4.361,3.438c-3.489,0-2.61-0.86-3.489-2.579c-0.863,0-0.863,0-0.863,0
						c-1.748-1.72-2.621-2.576-4.36-3.435c0,0-0.871,0-1.742,0c-0.875,1.715-0.875,1.715-1.744,3.435
						c-0.873,1.718-2.617,3.438-3.482,5.157c-3.492,1.718-3.492,1.718-5.234,4.291c-0.871,0-1.741,0.859-3.485,0.859
						c-0.869,0.859-1.74,1.72-2.613,2.578c-4.362,0-5.231,0-6.977,1.72c0,0,0,0.858-0.877,1.719c0,0-0.867,0-1.734,0
						c-3.489-1.719-3.489-0.859-6.106,0c-3.484,0.855-6.104,1.714-8.709,2.575c-4.365,0.864-6.105,0.864-8.728,3.439
						c0,1.716-0.866,2.573-0.866,3.436c-2.621,1.718-3.484,1.718-3.484,5.157c1.74,0.859,5.229,3.435,5.229,6.868
						C178.799,372.028,177.055,372.885,176.178,372.885L176.178,372.885z"/>
					<path fill="none" stroke="#8ABCC7" stroke-miterlimit="10" d="M202.334,300.714c-2.615-2.58-5.232-0.86-6.979-0.86
						c-0.867,0-0.867-0.855-1.738-1.72c0-5.155-3.486-4.294-5.225-4.294c0,0,0-0.861,0-1.719c1.737-3.441,4.35-6.873,4.35-10.308
						c-1.744-2.58-4.35-4.303-4.35-6.871c-1.748-2.581-2.619-1.723-4.365-1.723c-1.74,0.855-3.484,0.855-5.229,0.855
						c-1.743,2.578-3.483,3.436-5.229,4.294c-1.741,0-3.487,0.863-5.229,0.863c0-4.291-2.614-5.157-4.356-6.872l-0.869-0.858
						c0-4.297,0-7.733,0-12.028c-3.49,0-6.109,0.857-8.721,1.719c0-4.297,0.871-3.438,4.356-4.297
						c2.617-0.856,4.362-4.301,4.362-6.876c-0.873-3.437-1.745-6.013-1.745-8.585c-0.869-3.441-0.869-6.88-0.869-10.313
						c0-0.854,0-2.582-0.875-3.437c3.489-1.723,5.228-4.301,6.103-7.732c2.614-1.718,5.229-3.436,8.711-2.578
						c1.741,0,3.496,0,4.362-1.724c0-3.435-0.866-4.292-2.621-5.148c0.878-2.579,5.232-0.86,8.724,0.856c0.873,0,2.619,0,4.354,0
						c2.623,1.713,6.98,3.438,10.465,6.016c0.867,0,2.615,0.86,4.357,1.718c0.867,0,2.615,0,4.357,0
						c0.875-1.718,1.743-2.574,2.614-3.44c1.748,0,3.492,0.866,6.104,4.302c0.871,0,1.742,0.855,2.613,0.855
						c2.611,0.857,6.103,4.299,9.59,7.73c0.871,3.439,1.742,6.881,0,11.169c-5.227,5.162-7.846,7.737-3.487,15.467
						c0,0.864,0.87,1.722,0.87,2.579c0.873,0.854,2.617,7.738,3.488,11.168c1.744,2.581,1.744,4.299,0.871,7.732
						c0,2.579,0,5.159,0.873,9.448c-5.232,0-10.461,0-15.697,0c-1.733,1.726,0.879,4.299,2.621,6.019
						c0,0.856-0.871,1.719-0.871,2.58c-1.75,0-5.229-4.3-5.229-4.3c-1.748,0-3.488,0-5.232,0c-0.873,0.858-1.744,2.576-2.621,4.3
						C204.943,295.558,204.943,298.997,202.334,300.714L202.334,300.714z"/>
					<path fill="none" stroke="#8ABCC7" stroke-miterlimit="10" d="M242.434,298.997c-0.875-0.863-2.619-0.863-3.485-0.863
						c0-0.855,0-0.855,0-0.855c1.737-2.576,4.358-5.156,6.1-7.729c0-2.578-0.871-3.444-0.871-4.3c-3.489,0-4.36,0-6.104,0.854
						c-0.869,0-2.611,0-4.359,0.866c0-2.579-0.873-4.296-1.739-6.021c0-4.295,1.739-7.729,0.866-12.027
						c-0.866,0-0.866-0.858-1.739-0.858c0-5.149-2.617-9.454-3.486-12.889c-1.744-5.154-3.482-6.87-0.873-10.305
						c1.742-0.862,4.359-5.162,5.232-6.017c0-2.581,0-5.157,0-7.732c-0.873-1.722-1.744-3.437-2.615-5.158l-0.875-0.855
						c0.875-0.859,2.617-2.579,3.49-3.44c0,0,4.352,0,5.229-0.857c0-0.855,0.868-0.855,0.868-0.855
						c2.613-3.436,6.976-5.154,10.455-7.735c1.748-3.438,8.729-1.715,13.08-5.153c0.871-3.437,0.871-3.437,5.23-3.437
						c0,2.578,0,5.151,0,6.875c0.871,1.715,2.613,1.715,4.357,1.715c2.615-1.715,1.744-5.153,2.615-6.012
						c0.871,0.857,1.748,5.153,5.229,5.153c2.617,0,5.229,0,7.844-1.718c0.869,0,1.744,0,2.617,0
						c-0.873,3.432-5.229,4.296-3.487,8.594c2.614,2.573,4.354,5.149,6.975,9.45c0,1.715,0,2.582,0,3.437
						c-0.875,0.857-1.748,2.576-2.621,4.299c-3.482,4.288-6.965,2.573-10.457,4.288c-3.484,3.441-4.352,2.578-3.484,7.737
						c0.867,1.719,0.867,3.436,0,6.012c-1.744,0.862-2.615,1.718-3.486,3.438c-5.229,3.437-5.229,2.578-4.36,10.311
						c0,0.856,0,2.577-0.869,3.436c-3.485,3.436-4.354,3.436-4.354,8.593c0,0.858,0.869,1.716,0.869,2.58
						c-0.869,2.576-2.615,6.865-1.744,10.308c0,0.856,0,1.719,0.875,1.719c-1.746,0.861-3.49,1.718-5.234,3.438
						c-3.482-3.438-6.977-0.859-11.328,0.855C245.047,298.134,244.176,298.997,242.434,298.997L242.434,298.997z"/>
					<path fill="none" stroke="#8ABCC7" stroke-miterlimit="10" d="M283.402,309.306c0-2.579-1.744-4.294-2.617-5.158l0,0
						c-2.619-4.294-5.227-7.729-8.713-11.169c-3.494-0.856-6.105,0-7.85-0.856c-0.869-3.441,0-5.151,0.875-8.595
						c0.868-2.577,0-5.156,0-6.872c1.739-2.578,3.479-4.293,4.354-6.014c0-0.857,0.873-1.72,0.873-3.436
						c0-2.578-0.873-6.014,0.871-7.731c0.877-0.865,2.615-1.721,3.486-2.578c0.877-0.856,1.743-1.722,2.61-2.576
						c0.873-0.862,0.873-1.725,1.748-2.579c0-0.859,0-1.721,0-2.576c-2.615-5.156-1.748-6.015,2.616-7.729
						c2.613-0.864,4.355-0.864,6.972-2.581c2.61-0.86,4.358-4.299,5.231-6.017c0.871-0.858,1.738-0.858,3.484,0.858
						c1.742,3.433,1.742,9.453,6.979,12.029c2.612,0.857,6.098,0.857,8.715,0.857c1.74-1.714,6.094-1.714,9.59-1.714
						c0.865,0,0.865,0,1.742,0c-1.742,1.714-3.49,2.575-4.359,5.149c0,1.72,0,3.438,0,4.3c-4.36,0-9.59-0.862-8.719,3.435
						c1.746,0.854,2.611,1.721,3.486,3.438c0.871,0,1.743,0.854,1.743,0.854c0,0.866-0.872,1.723-1.743,1.723
						c0,3.438-2.611,7.733-0.875,11.174c0.875,0,0.875,0.855,1.746,0.855v0.855l-0.871-0.855c-0.875,0-2.611,0-4.357,0.855
						c-0.875,0.856,0,0.856,0,3.438c-4.356,3.435-3.484,1.722-4.356,7.735c-0.875,0.852-2.615,1.72-3.486,2.573
						c-1.744,0-3.49,0.858-4.357,0.858c-1.748,0.86-1.748,2.579,0.867,4.297c-5.227,0.86-7.848,5.156-10.459,8.59
						c0,0,0,0.864-0.875,1.723C286.885,307.584,285.146,308.443,283.402,309.306L283.402,309.306z"/>
					<path fill="none" stroke="#8ABCC7" stroke-miterlimit="10" d="M244.176,181.291c-2.617,0-4.361,0-6.973-0.862
						c-1.742-0.861-3.49-1.716-5.23-2.576c-5.231,0-6.977,0-9.594-1.721c-0.867-1.717-1.74-2.575-2.611-4.295
						c-1.742-0.859-2.613-1.713-4.356-2.575c-6.103,0-12.201,0-17.437-0.862c-4.356-0.858-10.455-3.438-11.33-5.154
						c-2.617-1.724-2.617-2.578-3.487-3.438c-0.869-6.872-4.357-10.31-6.103-13.741c-0.877-2.58-1.74-4.302-2.619-6.881
						c0-1.717,0-3.432,0-5.149c2.619,0,5.23-2.583,6.976-4.298c0.877,0,1.746-0.862,2.616-0.862c3.492,0,6.972-1.716,10.461-4.292
						c2.613,0,6.099-1.718,9.589-2.576c3.487-1.72,5.231-3.436,7.846-6.015c3.488-2.576,3.488-8.589,3.488-12.028
						c2.614,0.854,5.229,0.854,7.844,1.717c3.486,0,7.847,0,11.328,0c0.879,0.863,0.879,1.724,1.742,2.58
						c1.748,0.859,3.489,4.293,1.748,7.731c-2.611,0.859-4.359,1.719-4.359,5.157c-0.873,0-1.739,0-1.739,0.856c0,0,0,0,0,0.857
						c1.739,0.857,3.487,2.576,5.229,3.438v0.857c2.61,1.716,6.973,6.876,11.323,3.435c0.877,0,1.748,0.858,2.615,2.584
						c1.746,0.857,2.623,1.715,4.357,3.43v0.861c-1.734,1.717-1.734,5.155-2.611,6.875c-0.867,0-1.746-0.857-1.746-0.857
						c-3.483-3.438-3.483-7.731-7.836-6.018c0,3.44,0,6.875,0,10.31c-0.873,1.721-4.358,5.157-6.981,6.877c0,0.856,0,2.576,0,3.437
						c0.879,0.858,1.748,1.717,3.489,2.576c0,0.854,0.871,3.438,0.871,5.153c0.873,0,1.748,1.721,4.361,1.721
						c1.744-0.859,0.869-1.721,3.48-0.859c0.877,1.719,3.494,6.019,1.748,9.451c-0.871,0-4.359,1.721-4.359,2.581
						C245.047,179.567,244.176,180.429,244.176,181.291L244.176,181.291z"/>
					<path fill="none" stroke="#8ABCC7" stroke-miterlimit="10" d="M159.623,225.814c-2.619-5.153-7.846-8.589-11.338-12.024
						c-0.863-2.578,0-2.578,0-4.296c0-0.862,0-1.72,0.879-3.438c-0.879-0.861-0.879-1.719-1.742-1.719
						c2.615-2.577,10.455-1.721,13.945-1.721c3.482-0.856,6.104-2.574,8.715-5.155c0.873-0.86,2.613-1.712,3.488-2.576
						c0-1.72,0-2.576,0-3.436c-2.615-5.156-6.978-7.733-10.457-9.452c0-0.855-0.873-1.719-0.873-1.719c0-2.575,0-5.156,0-6.871
						c1.742-1.721,2.609-3.434,5.23-4.296c3.483-1.722,0.868-5.155,0-6.876c-1.746-0.863-3.488-1.72-4.357-2.578
						c4.357,0,8.715,0,13.063,0c1.755,0,3.488,0,5.232,0.858c1.745,2.578,6.981,6.874,12.207,7.733
						c0.87,0.861,1.737,0.861,3.483,1.725c5.232,0,11.332,0,16.568,0c2.605,1.713,4.355,2.573,6.098,3.434
						c0,1.715,1.744,3.438,4.363,5.155c2.609,0.854,5.227,0.854,7.842,0.854c1.74,0.86,3.488,1.724,6.1,2.579
						c0,0.854,3.486,0,6.976,1.719c0,0.862,0,1.716,1.744,3.436c0.867,0,5.229,0,5.229,2.579c-1.746,2.578-1.746,1.72-1.746,5.154
						c0,1.716,2.613,2.576,3.49,6.017c0,1.716,0,4.293,3.49,6.014c0,0,0,0,0,0.858c-7.852,0.856-9.598,3.438-16.57,7.729
						c-1.738,0.866-2.613,1.723-3.481,3.439c-4.363,1.718-6.104,0-8.722,4.293c-0.869,0-0.869,0-1.741,0.862
						c-1.744-1.719-2.609-3.438-4.361-4.295c-5.226-0.86-6.969-4.301-9.582-6.015c-3.487,0-3.487,0.859-5.231,3.437
						c-7.846,0-13.947-5.158-18.312-7.731c-3.479,0-6.099-0.862-8.711-1.72c-6.106,0-7.849,0.856-3.487,6.016
						c0,0.859,0,0.859-0.877,1.714c-0.863,0-1.742,0-1.742,0c-7.843,0-9.586,2.584-12.195,8.596
						C160.498,224.959,160.498,225.814,159.623,225.814L159.623,225.814z"/>
					<path fill="none" stroke="#8ABCC7" stroke-miterlimit="10" d="M159.623,244.008c-6.104-2.572-7.846-6.879-10.459-10.312
						c-0.879-6.875-6.107-12.889-13.077-9.449c-1.743,1.716-1.743,1.716-1.743,4.292c-1.742,2.582-4.359,5.157-6.972,6.881
						c0,0,0,0,0,0.854c-0.879,0-1.743,0-1.743,0.855c-0.875,0-1.745,0.864-3.49,0.864c-4.354,0-8.716-0.864-11.33-3.438
						c1.742-3.435,1.742-6.017,0.871-7.733c-2.617-2.574-5.232-5.155-6.098-6.869c0-4.302,0.865-8.594,0.865-12.029
						c-0.865-4.296-1.74-6.014-0.865-8.591c0-0.86,0-0.86,0-0.86c1.742,0.86,3.48,2.579,5.227,3.438
						c0.871,0.855,2.614,2.576,3.489,3.436c7.841,3.435,13.943-7.734,16.561-13.746c1.743-2.576,3.485-5.156,5.229-7.732
						c0-2.574,0-4.299,0-6.869c0.872-0.864,1.745-0.864,2.616-1.726c4.354,0,7.846-1.715,13.073,2.581
						c1.742,0.86,2.615,2.576,4.363,4.294c2.609,0,4.357,0.855,6.101,1.72c2.608,0.861,10.454,5.156,10.454,10.308
						c-3.483,1.726-6.102,5.159-8.713,6.878c-6.979,1.715-13.075-0.859-17.434,1.715c0,1.721,0,2.579,0,3.439
						c2.615,3.437-3.492,6.866,2.615,11.169c1.742,0.86,3.482,2.578,4.355,4.292c1.744,1.719,2.621,3.44,4.356,5.155
						c0.873,1.718,0.873,3.445,1.746,5.157C159.623,236.273,159.623,239.708,159.623,244.008L159.623,244.008z"/>
					<path fill="none" stroke="#8ABCC7" stroke-miterlimit="10" d="M269.451,210.502c-0.873,0-0.873,0-0.873-0.86
						c0-1.719,0-4.297,0-6.015c0-0.861-0.869-0.861-0.869-0.861c-5.23,0-5.23-0.855-7.846,3.439c0,0-0.873,0-0.873,0.857
						c0-1.719-1.734-1.719-2.615-2.577c0-0.858,0-0.858-0.875-1.721c0-4.294-1.734-4.294-2.611-6.867
						c-0.867-0.863-0.867-0.863-1.746-0.863c0-2.576,1.746-2.576,2.623-4.302c0-5.151-5.238-4.291-6.975-6.006
						c0-0.861,0-0.861,0-1.726c-0.875,0-0.875-0.855-0.875-0.855c0-2.579,2.611-3.434,4.359-4.294
						c0.867-0.855,1.746-1.721,2.613-2.581c0-4.294-1.746-8.591-3.484-10.31c-1.746,0-2.613,0-3.488,0
						c-0.869,0-0.869,0.857-0.869,0.857c-0.871,0-0.871,0-1.74,0c-1.748-1.715-1.748-5.153-2.621-6.872
						c-0.871-0.857-1.737-0.857-2.612-1.718c0-3.436,3.485-5.157,6.104-7.732c0.87-3.433,0-6.874,0-10.313
						c0-0.858,0-0.858,0.87-0.858l0.869,0.858c0.875,0.862,1.742,5.158,5.228,6.02c0.879,0,1.746,0,2.623,0
						c2.608-2.58,1.733-4.295,3.489-7.735c0,0,0-0.861,0-1.715c-1.756-1.719-3.489-3.438-5.233-5.16
						c0-1.719,0.867-1.719,1.744-1.719c0.871,0,0.871,0,0.871,0c2.618,1.719,5.227,4.303,6.1,7.731
						c0.871,0.861,1.742,2.578,2.617,3.44c3.483,0,6.971,0.86,10.457,1.717c0.871,0.859,1.748,0.859,2.615,1.722
						c1.739,3.435,2.614,9.449,6.977,12.888c0,0,0,0.857,0.869,0.857c0.875,0,3.481,0,5.229-0.857c0.865-3.438,0-1.719,3.486-2.577
						c0,0.858,1.743,3.436,1.743,6.012c-1.743,0.859-4.364,0.859-6.104,0.859c-0.875,0.854-1.744,2.578-1.744,3.438
						c0,1.715,0,2.575,0,3.436c-1.738,1.722-1.738,1.722-1.738,4.297c1.738,1.72,4.355,3.435,6.095,6.016
						c0.872,0,2.62,0,3.491,1.715c0.867,0.861,1.74,1.725,2.613,2.579c1.742,0,4.355,0,6.979,0.855c0,0,0.865,0,0.865,0.862
						s0,0.862,0,1.717c-2.611,3.44-6.97,0.86-6.97,6.018c0.867,0.859,0.867,1.716,0.867,2.574c-1.742,0.861-2.615,1.726-3.488,1.726
						c0,2.573,0,5.152,0,6.867c-2.61,4.298-5.231,5.157-9.586,6.014c-3.488,0.862-5.229,1.724-7.848,0.862
						c-2.607-2.578-2.607-4.297-4.355-5.155c-1.737,0-0.871,0-1.737,1.72c-0.878,1.718-0.878,2.573-0.878,4.297
						C270.324,210.502,269.451,210.502,269.451,210.502L269.451,210.502z"/>
					<path fill="none" stroke="#8ABCC7" stroke-miterlimit="10" d="M305.189,194.173c-2.611-0.858-3.488-0.858-4.355-0.858
						c0-0.855,0-0.855,0-1.716c-3.488-0.865,4.355-3.438,5.23-3.438c0-0.858,0.872-0.858,0.872-1.718c0-6.875-4.358-5.15-7.85-6.014
						c-2.614,0-3.487-2.576-3.487-2.576c-3.486-1.721-5.232-2.581-6.099-4.296c-2.617-1.72-2.617-2.579-2.617-3.433
						c1.744-1.726,1.744-3.443,1.744-5.162c0-0.856,0-1.718,0.873-2.576c1.737,0,4.358,0.858,6.972-1.72
						c0-3.437-0.873-6.871-2.611-7.731c-2.621,0-3.494,0-5.232,0c0,0.86,0,1.72,0,2.576c-0.875,0-2.615,0-3.482,0.861
						c-0.875-1.719-0.875-1.719-2.621-2.577c-2.614-5.156-3.483-9.452-6.1-12.031c-2.615-1.717-5.23-1.717-6.975-1.717
						c-1.742-0.862-3.484-1.722-5.229-1.722c-0.869-0.857-0.869-0.857-0.869-1.72c-1.746-3.43-5.234-7.731-7.854-9.447
						c0-2.576-0.863-6.01,2.619-4.295c0.87,0.857,0.87,1.719,1.743,1.719v0.857c1.744,0.86,2.615,1.719,4.359,4.297
						c1.744,0.855,4.355,1.715,7.85,1.715c2.609-0.858,4.354-7.729,6.97-3.433c0.869,0,1.744,0,2.616,0
						c0.867-0.86,1.744-2.579,3.488-3.438c0-3.434,0.867-7.73,5.222-7.73c0,1.72,0,2.575,0,4.298
						c1.745,0.856,2.62,2.572,4.364,3.434c2.613,0.857,6.103,3.438,10.457,5.154c2.613,6.017,6.104,12.026,10.462,18.901
						c0,1.718,0.872,5.156,3.481,7.733c4.361,2.575,7.848,4.294,13.078,7.732c0,0.856,0,0.856,0,1.715c-0.871,0.86-7.84,0-7.84,0
						c0,0.86,0,1.721,0,3.441c0.867,0,2.608,0.862,4.354,1.716c0,0.859-0.877,1.721,0,3.438c1.744,0.855,3.484,1.717,6.104,2.581
						c0,0.855,0,0.855,0,0.855c0,3.438-3.49,4.294-6.104,6.013c0,0.862,0,0.862,0,0.862c-0.877,0-6.098,5.152-6.973,6.006
						c-1.742,0.865-3.488,0.865-5.23,1.726v0.855c-2.618,0-5.229,0-7.848-0.855C307.803,193.314,306.938,194.173,305.189,194.173
						L305.189,194.173z"/>
					<path fill="none" stroke="#8ABCC7" stroke-miterlimit="10" d="M244.176,130.593c-0.869-0.855-2.617-1.719-3.49-2.573
						c-2.613-1.719-4.36-3.438-6.104-5.155c0-1.715,0.879-2.577,0.879-3.438c1.742-0.855,3.486-2.575,4.354-4.296
						c0-1.716,0-3.436,0-4.297c0-2.574-2.61-11.169-3.489-12.027c0-2.577-0.863-3.434,0.879-5.154
						c1.743-3.435,4.354-5.154,6.973-7.734c2.615-5.149,6.968-6.014,12.199-9.447c2.615-2.58,4.36-5.16,6.979-6.875
						c0.869,1.715,0.869,3.439,1.744,5.156c0.868,0,2.61,0,3.479,0c0.873-0.861,0.873-2.575,1.746-3.441
						c1.747,0,4.356,0.866,6.969-0.854c0,0.854,0.873,2.579,1.748,3.435c0,2.58,0,4.298,0,6.878
						c1.744,1.715,6.104,4.293,11.326,4.293c1.745-3.438,3.493-6.016,5.231-9.45c0.873-0.858,1.746-1.721,2.621-2.575
						c1.744-0.858,4.357-1.726,7.844-1.726c1.738,0.866,4.357,1.726,6.104,2.58c4.355,0,9.586,0,13.945,0c0,0,0.866,0,0.866,0.861
						c0,0,0,0,0,0.858c-0.866,1.716-0.866,2.577-0.866,4.294c-1.742,0-3.484,0.863-5.232,0.863
						c-4.356,2.574-12.205,6.01-13.942,11.169c-0.873,0.859-1.748,0.859-2.613,1.716c-1.746,1.722-3.49,1.722-5.236,2.577
						l-0.867,0.856c0,1.721,0,3.439,0,5.156c-1.748,1.721-4.359,4.301-5.231,6.877c-0.875,1.715,0,4.296-1.748,6.012
						c-4.354,0-5.228,2.579-6.97,4.296c-0.869,2.579-1.746,6.014-4.36,7.731v-0.857c-0.869,0-0.869-0.86-1.744-0.86
						c-0.873,0-1.739,0-1.739,0c-1.744,0.86-2.615,2.579-4.354,3.435c-1.748,0.862-5.234,0-6.976,0c0-0.854,0-1.716,0-1.716
						c-2.619-2.576-4.36-4.294-6.106-6.01c-1.734,0-2.615,0-3.49,0c-0.862,1.716-0.862,3.434-1.733,6.01
						c-1.744,0-3.49,0.86-3.49,1.716C247.658,128.874,245.916,130.593,244.176,130.593L244.176,130.593z"/>
					<path fill="none" stroke="#8ABCC7" stroke-miterlimit="10" d="M258.99,61.863c-2.615-1.724-5.225-4.299-5.225-4.299
						c-2.623-3.437-2.623-9.046-2.949-9.618c-0.127-0.224-0.303-0.453-0.541-0.688c-4.359-3.437-5.229-4.297-10.461-2.581
						c-0.867,0.862-0.867,0.862-1.742,1.726c-2.611,0-5.232,0-6.973,0c0-2.58-0.871-4.298,2.612-5.158
						c0.869-0.859,1.748-1.72,2.61-2.576c1.748-3.44-0.862-5.154-0.862-6.876c2.61-0.855,5.226-2.582,6.974-4.293
						c0.873-2.578,0.873-3.438,2.612-3.438c0.869,0.86,1.744,1.717,2.611,2.58c1.745,0,3.483,0,5.229,0
						c-0.867,1.717-0.867,7.734,0.877,10.31c0.234,0.233,0.539,0.92,0.963,1.859c0.349,0.777,0.777,1.734,1.316,2.759
						c1.211,2.255,2.945,4.835,5.563,6.554c0.871,1.713,1.746,2.572,2.615,4.293c-3.486,1.716-3.486,0.857-5.232,3.437
						C258.99,57.564,258.99,60.14,258.99,61.863L258.99,61.863z"/>
					<path fill="none" stroke="#8ABCC7" stroke-miterlimit="10" d="M338.313,332.503c-1.743-2.574-2.61-4.294-4.354-6.016
						c-0.873-0.86-1.748-0.86-2.619-0.86c-0.869-3.438-2.613-6.016-3.49-6.867c-0.868-0.858-0.868-1.721-0.868-3.438
						c0.868-2.578,1.745-5.159,1.745-7.738c-1.745-6.016,0.871-6.87,3.484-10.307c0-1.721,0-3.438,0.875-5.156
						c1.744-5.151,2.615-7.73,6.103-11.173c1.737-1.715,3.481-2.578,5.229-4.294c1.74,0,2.615,0,4.357,0
						c0,0.856,1.741,4.294,0.871,6.02c-2.613,4.296-0.871,12.027-0.871,18.896c-1.742,4.301-4.357,9.452-6.976,13.754
						c0,0.86,0,1.717-0.875,2.578c0,4.288-0.869,9.447-0.869,13.742C339.188,331.644,338.313,332.503,338.313,332.503
						L338.313,332.503z"/>
				</g>
			</g>
			<g>
				
					<rect id="SVGID_1_" x="0.699" y="0.356" fill="none" stroke="#8ABCC7" stroke-miterlimit="10" width="271.514" height="215.055"/>
			</g>
		</g>
	</g>
	<g>
		<circle fill="#EFA54D" cx="184.055" cy="98.365" r="8.188"/>
		<circle fill="none" stroke="#EFA54D" stroke-miterlimit="10" cx="184.053" cy="98.365" r="11.5"/>
	</g>
</g>
</svg>
