<?xml version="1.0" encoding="utf-8"?>
<!-- Generator: Adobe Illustrator 16.0.0, SVG Export Plug-In . SVG Version: 6.00 Build 0)  -->
<!DOCTYPE svg PUBLIC "-//W3C//DTD SVG 1.1//EN" "http://www.w3.org/Graphics/SVG/1.1/DTD/svg11.dtd">
<svg version="1.1" id="图层_1" xmlns="http://www.w3.org/2000/svg" xmlns:xlink="http://www.w3.org/1999/xlink" x="0px" y="0px"
	 width="992.83px" height="549.81px" viewBox="0 0 992.83 549.81" enable-background="new 0 0 992.83 549.81" xml:space="preserve">
<g>
	
		<rect x="2.937" y="3.628" fill="none" stroke="#497A8D" stroke-linecap="round" stroke-miterlimit="10" width="986.062" height="541.015"/>
	<path fill="#D0EBF1" d="M992.423,14.788c-0.021-0.354-0.151-0.705-0.423-0.976L978.333,0.146c-0.293-0.293-0.677-0.439-1.061-0.439
		h-34l-4.982,2.491h-28.603l-1.945,0.973h-42.294c-0.276,0-0.5,0.223-0.5,0.5c0,0.276,0.224,0.5,0.5,0.5h40.294l-0.055,0.027h69.586
		l13.133,13.133v69.45l0.261-0.521v50.995c0,0.276,0.224,0.5,0.5,0.5s0.5-0.224,0.5-0.5V84.258l0.739-1.479V52.958l2.085-4.17v-34
		H992.423z"/>
	<path fill="#D0EBF1" d="M-0.339,14.788v34l2.085,4.17V82.78l0.739,1.479v52.995c0,0.276,0.224,0.5,0.5,0.5s0.5-0.224,0.5-0.5
		V86.258l0.261,0.521V17.33L16.879,4.197h69.586L86.41,4.17h50.294c0.276,0,0.5-0.224,0.5-0.5c0-0.277-0.224-0.5-0.5-0.5H84.41
		l-1.945-0.973H53.862L48.88-0.294h-34c-0.384,0-0.768,0.146-1.061,0.439L0.152,13.812c-0.271,0.271-0.403,0.622-0.423,0.976H-0.339
		z"/>
	<path fill="#D0EBF1" d="M992.491,534.432v-34l-2.085-4.17V466.44l-0.739-1.479v-52.994c0-0.276-0.224-0.5-0.5-0.5
		s-0.5,0.224-0.5,0.5v50.994l-0.261-0.521v69.449l-13.133,13.133h-69.586l0.055,0.027h-40.294c-0.276,0-0.5,0.224-0.5,0.5
		s0.224,0.5,0.5,0.5h42.294l1.945,0.973h28.603l4.982,2.491h34c0.384,0,0.768-0.146,1.061-0.439L992,535.408
		c0.271-0.271,0.402-0.622,0.423-0.977H992.491z"/>
	<path fill="#D0EBF1" d="M-0.271,534.432c0.021,0.354,0.152,0.705,0.423,0.977l13.667,13.666c0.293,0.293,0.677,0.439,1.061,0.439
		h34l4.982-2.491h28.603l1.945-0.973h52.294c0.276,0,0.5-0.224,0.5-0.5s-0.224-0.5-0.5-0.5H86.41l0.055-0.027H16.879L3.746,531.89
		V462.44l-0.261,0.521v-50.994c0-0.276-0.224-0.5-0.5-0.5s-0.5,0.224-0.5,0.5v52.994l-0.739,1.479v29.821l-2.085,4.17v34H-0.271z"/>
</g>
</svg>
